<svg aria-hidden="true" style="position: absolute; width: 0; height: 0; overflow: hidden;" version="1.1" xmlns="http://www.w3.org/2000/svg" xmlns:xlink="http://www.w3.org/1999/xlink">
<defs>
<symbol id="icon-plus" viewBox="0 0 24 24">
<title>plus</title>
<path d="M21.010 10.272h-7.879v-7.879h-2.251v7.879h-7.879v2.251h7.879v7.879h2.251v-7.879h7.879z"></path>
</symbol>
<symbol id="icon-minus" viewBox="0 0 24 24">
<title>minus</title>
<path d="M3.001 10.272h18.009v2.251h-18.009v-2.251z"></path>
</symbol>
<symbol id="icon-cross" viewBox="0 0 24 24">
<title>cross</title>
<path d="M19.294 5.826l-1.592-1.592-5.571 5.571-5.571-5.571-1.592 1.592 5.571 5.571-5.571 5.571 1.592 1.592 5.571-5.571 5.571 5.571 1.592-1.592-5.571-5.571z"></path>
</symbol>
<symbol id="icon-tick" viewBox="0 0 24 24">
<title>tick</title>
<path d="M20.454 7.232l-1.592-1.592-9.75 9.751-3.963-3.962-1.592 1.592 5.569 5.54z"></path>
</symbol>
<symbol id="icon-edit" viewBox="0 0 24 24">
<title>edit</title>
<path d="M20.020 3.161l1.904 1.905-14.366 14.362-1.904-1.905 14.366-14.362zM18.344 1.486l0.952 0.952-14.364 14.364-0.952-0.952 14.364-14.364zM6.927 20.010l-4.837 1.297 1.296-4.838z"></path>
</symbol>
<symbol id="icon-hamburger" viewBox="0 0 24 24">
<title>hamburger</title>
<path d="M3 10.272h18.009v2.251h-18.009v-2.251zM3 18.149h18.009v2.251h-18.009v-2.251zM3 2.393h18.009v2.251h-18.009v-2.251z"></path>
</symbol>
<symbol id="icon-cog" viewBox="0 0 24 24">
<title>cog</title>
<path d="M18.939 9.277c-0.096-0.232-0.203-0.455-0.319-0.672l1.129-2.376c-0.531-0.695-1.144-1.307-1.824-1.826l-2.377 1.129c-0.437-0.233-0.895-0.423-1.37-0.567l-0.881-2.479c-0.847-0.114-1.713-0.115-2.581 0.002l-0.881 2.478c-0.235 0.071-0.468 0.153-0.7 0.249s-0.455 0.203-0.672 0.319l-2.375-1.129c-0.696 0.531-1.307 1.143-1.826 1.823l1.129 2.377c-0.234 0.437-0.423 0.896-0.567 1.37l-2.48 0.882c-0.114 0.847-0.114 1.713 0.002 2.581l2.478 0.881c0.071 0.235 0.154 0.467 0.249 0.699s0.203 0.455 0.319 0.672l-1.129 2.376c0.532 0.696 1.144 1.307 1.824 1.826l2.377-1.13c0.437 0.233 0.895 0.423 1.37 0.567l0.882 2.48c0.848 0.114 1.713 0.114 2.581-0.002l0.881-2.478c0.235-0.071 0.47-0.154 0.702-0.25s0.454-0.203 0.671-0.318l2.375 1.129c0.696-0.531 1.308-1.144 1.826-1.823l-1.13-2.377c0.234-0.437 0.423-0.896 0.567-1.37l2.48-0.882c0.114-0.847 0.115-1.712-0.002-2.581l-2.478-0.881c-0.071-0.236-0.155-0.469-0.25-0.7zM14.017 17.001c-2.681 1.111-5.753-0.163-6.863-2.842s0.162-5.753 2.843-6.863c2.68-1.11 5.752 0.164 6.862 2.843s-0.163 5.752-2.842 6.862z"></path>
</symbol>
<symbol id="icon-cog-double" viewBox="0 0 24 24">
<title>cog-double</title>
<path d="M13.808 7.545c-0.072-0.174-0.152-0.341-0.239-0.503l0.846-1.78c-0.398-0.52-0.858-0.979-1.366-1.367l-1.781 0.846c-0.328-0.175-0.672-0.317-1.026-0.425l-0.661-1.858c-0.635-0.085-1.283-0.086-1.933 0.002l-0.66 1.856c-0.176 0.053-0.351 0.115-0.525 0.187-0.173 0.072-0.341 0.152-0.503 0.239l-1.78-0.846c-0.521 0.398-0.979 0.857-1.367 1.366l0.846 1.781c-0.176 0.327-0.318 0.672-0.425 1.026l-1.859 0.662c-0.086 0.635-0.086 1.283 0.002 1.933l1.856 0.66c0.053 0.176 0.115 0.35 0.187 0.524s0.152 0.341 0.239 0.503l-0.846 1.78c0.398 0.521 0.858 0.979 1.366 1.367l1.781-0.846c0.328 0.175 0.672 0.318 1.026 0.425l0.661 1.858c0.636 0.086 1.283 0.086 1.933-0.001l0.66-1.857c0.176-0.053 0.352-0.115 0.525-0.187s0.341-0.152 0.502-0.239l1.78 0.846c0.521-0.397 0.98-0.858 1.368-1.366l-0.847-1.781c0.176-0.328 0.318-0.672 0.425-1.026l1.859-0.661c0.086-0.635 0.086-1.283-0.001-1.933l-1.856-0.661c-0.053-0.175-0.114-0.35-0.186-0.523zM10.121 13.331c-2.009 0.832-4.31-0.122-5.142-2.13s0.121-4.31 2.13-5.142c2.008-0.832 4.309 0.122 5.141 2.13s-0.121 4.311-2.129 5.142zM22.258 16.84l-0.963-0.267c-0.164-0.601-0.477-1.139-0.903-1.568l0.25-0.967c-0.347-0.279-0.738-0.504-1.161-0.67l-0.715 0.702c-0.289-0.075-0.591-0.119-0.903-0.119s-0.614 0.045-0.903 0.119l-0.715-0.702c-0.422 0.166-0.813 0.391-1.161 0.67l0.25 0.967c-0.425 0.429-0.739 0.967-0.903 1.568l-0.963 0.267c-0.033 0.219-0.056 0.442-0.056 0.671s0.023 0.452 0.056 0.672l0.963 0.266c0.164 0.601 0.477 1.139 0.903 1.568l-0.25 0.967c0.347 0.279 0.738 0.504 1.161 0.67l0.715-0.702c0.289 0.076 0.591 0.12 0.903 0.12s0.614-0.045 0.903-0.12l0.715 0.702c0.422-0.166 0.813-0.391 1.161-0.67l-0.25-0.967c0.425-0.429 0.739-0.967 0.903-1.568l0.963-0.266c0.033-0.22 0.056-0.443 0.056-0.672s-0.023-0.452-0.056-0.671zM17.863 19.587c-1.147 0-2.078-0.929-2.078-2.077 0-1.147 0.93-2.077 2.078-2.077s2.078 0.93 2.078 2.077c-0.001 1.148-0.931 2.077-2.078 2.077z"></path>
</symbol>
<symbol id="icon-eye" viewBox="0 0 24 24">
<title>eye</title>
<path d="M1.439 12.148c2.55 3.698 6.338 6.792 10.565 6.792s8.015-3.094 10.565-6.792c-2.55-3.699-6.338-6.792-10.565-6.792s-8.015 3.094-10.565 6.792zM2.903 12.736c2.196-3.155 5.456-5.154 9.101-5.154s6.905 1.999 9.101 5.154c-2.196 3.155-5.456 5.154-9.101 5.154s-6.905-1.999-9.101-5.154zM12.004 9.494c-0.501 0-0.978 0.111-1.405 0.306 0.744 0.217 1.292 0.897 1.292 1.71 0 0.987-0.802 1.79-1.79 1.79-0.616 0-1.159-0.312-1.482-0.787-0.014 0.129-0.023 0.258-0.023 0.39 0 1.88 1.527 3.408 3.408 3.408s3.408-1.528 3.408-3.408c0-1.882-1.527-3.409-3.408-3.409z"></path>
</symbol>
<symbol id="icon-retry" viewBox="0 0 24 24">
<title>retry</title>
<path d="M15.343 9.234h3.001v3.001h-3.001v-3.001zM18.345 0.23h3.001v3.001h-3.001v-3.001zM15.343 3.231h3.001v3.001h-3.001v-3.001zM18.345 6.233h3.001v3.001h-3.001v-3.001zM22.482 18.25l-11.232 0.001c-1.57 0-3.14-0.6-4.337-1.797-2.394-2.395-2.394-6.278 0-8.674 0.843-0.843 1.871-1.379 2.953-1.626v1.564l4.721-2.725-4.721-2.727v1.806c-1.61 0.272-3.154 1.017-4.397 2.262-3.194 3.194-3.194 8.372 0 11.565 1.597 1.598 3.69 2.396 5.783 2.396v-0.001h11.231v-2.043z"></path>
</symbol>
<symbol id="icon-hdots" viewBox="0 0 24 24">
<title>hdots</title>
<path d="M7.504 11.396c0 1.243-1.008 2.251-2.251 2.251s-2.251-1.008-2.251-2.251c0-1.243 1.008-2.251 2.251-2.251s2.251 1.008 2.251 2.251zM14.257 11.396c0 1.243-1.008 2.251-2.251 2.251s-2.251-1.008-2.251-2.251c0-1.243 1.008-2.251 2.251-2.251s2.251 1.008 2.251 2.251zM21.010 11.396c0 1.243-1.008 2.251-2.251 2.251s-2.251-1.008-2.251-2.251c0-1.243 1.008-2.251 2.251-2.251s2.251 1.008 2.251 2.251z"></path>
</symbol>
<symbol id="icon-vdots" viewBox="0 0 24 24">
<title>vdots</title>
<path d="M14.257 18.149c0 1.243-1.008 2.251-2.251 2.251s-2.251-1.008-2.251-2.251c0-1.243 1.008-2.251 2.251-2.251s2.251 1.008 2.251 2.251zM14.257 11.396c0 1.243-1.008 2.251-2.251 2.251s-2.251-1.008-2.251-2.251c0-1.243 1.008-2.251 2.251-2.251s2.251 1.008 2.251 2.251zM14.257 4.643c0 1.243-1.008 2.251-2.251 2.251s-2.251-1.008-2.251-2.251c0-1.243 1.008-2.251 2.251-2.251s2.251 1.008 2.251 2.251z"></path>
</symbol>
<symbol id="icon-cloud" viewBox="0 0 24 24">
<title>cloud</title>
<path d="M21.322 13.965c0-1.711-1.181-3.147-2.773-3.538-0.091-1.457-1.298-2.613-2.779-2.613-0.418 0-0.812 0.095-1.168 0.26-0.824-1.706-2.572-2.883-4.593-2.883-2.808 0-5.085 2.269-5.1 5.074-1.31 0.615-2.219 1.946-2.219 3.49 0 2.056 1.61 3.736 3.638 3.848h11.745c1.827-0.197 3.249-1.758 3.249-3.638z"></path>
</symbol>
<symbol id="icon-approval" viewBox="0 0 24 24">
<title>approval</title>
<path d="M12.006 2.392l1.793 2.314 2.71-1.108 0.395 2.901 2.901 0.395-1.108 2.71 2.314 1.793-2.314 1.793 1.108 2.71-2.901 0.395-0.395 2.901-2.71-1.108-1.793 2.314-1.793-2.314-2.71 1.108-0.395-2.901-2.901-0.395 1.108-2.71-2.314-1.793 2.314-1.793-1.108-2.71 2.901-0.395 0.395-2.901 2.71 1.108z"></path>
</symbol>
<symbol id="icon-trash" viewBox="0 0 24 24">
<title>trash</title>
<path d="M7.004 6.192h9.879v14.21h-9.879v-14.21zM13.57 3.128v-0.75h-3.126v0.75h-4.691v2.251h12.507v-2.251z"></path>
</symbol>
<symbol id="icon-copy" viewBox="0 0 24 24">
<title>copy</title>
<path d="M7.504 4.807h6.753v-2.251h-9.004v13.178h2.251zM9.755 7.058h9.004v13.179h-9.004v-13.179z"></path>
</symbol>
<symbol id="icon-exit" viewBox="0 0 24 24">
<title>exit</title>
<path d="M9.554 19.983l7.892-7.892-7.892-7.892-1.429 1.428 6.464 6.464-6.464 6.463zM8.254 2.392v3.249l6.996 7.023-6.996 7.023v0.714h12.756v-18.009zM7.901 7.412h-3.092l4.035 4.126h-7.342v2.251h7.342l-4.035 4.126h3.092l5.231-5.252z"></path>
</symbol>
<symbol id="icon-loop" viewBox="0 0 24 24">
<title>loop</title>
<path d="M12.007 2.728l-0.002 2.251c3.73 0.001 6.753 3.023 6.753 6.753s-3.023 6.753-6.753 6.753-6.753-3.023-6.753-6.753c0-1.312 0.381-2.533 1.027-3.569l1.224 1.223 1.553-5.799-5.798 1.553 1.398 1.399c-1.039 1.468-1.655 3.257-1.655 5.193 0 4.973 4.032 9.004 9.004 9.004 4.974 0 9.004-4.031 9.004-9.004s-4.030-9.004-9.003-9.004z"></path>
</symbol>
<symbol id="icon-refresh" viewBox="0 0 24 24">
<title>refresh</title>
<path d="M21.010 11.507c0-4.973-4.030-9.004-9.003-9.004l-0.002 2.251c3.73 0 6.753 3.023 6.753 6.753 0 1.311-0.38 2.531-1.026 3.566l-1.224-1.225-1.555 5.799 5.8-1.552-1.396-1.398c1.037-1.468 1.652-3.255 1.652-5.19zM5.253 11.507c0-1.312 0.381-2.533 1.029-3.569l1.222 1.223 1.553-5.799-5.797 1.553 1.398 1.399c-1.039 1.468-1.656 3.257-1.656 5.193 0 4.973 4.032 9.004 9.004 9.004v-2.251c-3.73-0.001-6.753-3.023-6.753-6.753z"></path>
</symbol>
<symbol id="icon-feed" viewBox="0 0 24 24">
<title>feed</title>
<path d="M3.001 20.402h4.502c0-2.488-2.014-4.502-4.502-4.502v4.502zM3.001 12.9c4.147 0.001 7.502 3.356 7.502 7.502h3.003c0-5.801-4.703-10.505-10.505-10.505v3.003zM3.001 6.896c7.459 0 13.507 6.047 13.507 13.507h3.001c0-9.117-7.391-16.508-16.508-16.508v3.001z"></path>
</symbol>
<symbol id="icon-left" viewBox="0 0 24 24">
<title>left</title>
<path d="M10.596 11.396l6.003-6.003h-3.183l-6.003 6.003 6.003 6.003h3.183z"></path>
</symbol>
<symbol id="icon-right" viewBox="0 0 24 24">
<title>right</title>
<path d="M13.416 11.396l-6.003 6.003h3.183l6.003-6.003-6.003-6.003h-3.183z"></path>
</symbol>
<symbol id="icon-up" viewBox="0 0 24 24">
<title>up</title>
<path d="M12.006 9.986l6.003 6.003v-3.183l-6.003-6.003-6.003 6.003v3.183z"></path>
</symbol>
<symbol id="icon-down" viewBox="0 0 24 24">
<title>down</title>
<path d="M12.006 12.806l-6.003-6.003v3.183l6.003 6.003 6.003-6.003v-3.183z"></path>
</symbol>
<symbol id="icon-double-right" viewBox="0 0 24 24">
<title>double-right</title>
<path d="M10.414 11.396l-6.003 6.003h3.183l6.003-6.003-6.003-6.003h-3.183zM16.417 11.396l-6.003 6.003h3.183l6.003-6.003-6.003-6.003h-3.183z"></path>
</symbol>
<symbol id="icon-double-left" viewBox="0 0 24 24">
<title>double-left</title>
<path d="M13.597 11.396l6.003-6.003h-3.183l-6.003 6.003 6.003 6.003h3.183zM7.594 11.396l6.003-6.003h-3.183l-6.003 6.003 6.003 6.003h3.183z"></path>
</symbol>
<symbol id="icon-arrow-left" viewBox="0 0 24 24">
<title>arrow-left</title>
<path d="M10.363 17.725l-8.862-6.329 8.862-6.33v3.799l10.648 0.002v5.059h-10.648z"></path>
</symbol>
<symbol id="icon-arrow-right" viewBox="0 0 24 24">
<title>arrow-right</title>
<path d="M13.649 17.725l8.862-6.329-8.862-6.33v3.799l-10.648 0.002v5.059h10.648z"></path>
</symbol>
<symbol id="icon-arrow-up" viewBox="0 0 24 24">
<title>arrow-up</title>
<path d="M18.335 9.752l-6.329-8.861-6.329 8.861h3.799l0.001 10.648h5.060v-10.648z"></path>
</symbol>
<symbol id="icon-arrow-down" viewBox="0 0 24 24">
<title>arrow-down</title>
<path d="M5.677 13.039l6.329 8.863 6.329-8.863h-3.799l-0.001-10.647h-5.060v10.647z"></path>
</symbol>
<symbol id="icon-castle" viewBox="0 0 24 24">
<title>castle</title>
<path d="M17.084 4.526v2.251h-2.251v-2.251h-2.451v-1.216l2.532-1.233-3.283-1.598v4.047h-2.463v2.251h-2.251v-2.251h-3.915v4.502h2.251v11.373h4.637v-5.198c0.054-1.739 0.977-3.127 2.117-3.127s2.063 1.388 2.117 3.127v5.198h4.637v-11.373h2.251v-4.502h-3.927z"></path>
</symbol>
<symbol id="icon-triskelion-light" viewBox="0 0 24 24">
<title>triskelion-light</title>
<path d="M16.317 13.751c-0.035 0.286-0.395 0.284-0.574 0.158-0.209-0.149-0.293-0.403-0.284-0.651 0.020-0.599 0.611-1.037 1.168-1.090 1.177-0.11 2.079 0.999 2.044 2.116-0.038 1.207-0.924 2.184-2.067 2.49-1.177 0.316-2.414-0.121-3.23-1-0.361-0.389-0.613-0.869-0.886-1.321-0.358-0.593-0.715-1.186-1.074-1.78-0.182-0.303-0.251-0.6-0.6-0.674-0.531-0.114-1.060-0.243-1.593-0.344-1.177-0.252-2.489 0.271-3.010 1.395-0.455 0.99-0.092 2.432 1.079 2.71 0.52 0.122 1.143-0.045 1.378-0.566 0.095-0.211 0.107-0.481-0.041-0.672-0.064-0.083-0.17-0.158-0.278-0.166-0.065-0.006-0.209 0.117-0.243 0.104-0.186-0.139-0.092-0.404 0.062-0.521 0.194-0.149 0.461-0.134 0.672-0.040 0.561 0.25 0.72 0.959 0.529 1.5-0.384 1.137-1.831 1.422-2.8 0.891-1.079-0.589-1.527-1.872-1.241-3.034 0.297-1.206 1.306-2.084 2.496-2.358 0.519-0.119 1.058-0.098 1.587-0.109 0.693-0.014 1.386-0.026 2.079-0.040 0.355-0.007 0.645 0.081 0.885-0.182 0.364-0.401 0.738-0.797 1.093-1.206 0.804-0.888 1.017-2.295 0.299-3.301-0.657-0.926-2.186-1.32-2.975-0.32-0.331 0.421-0.431 1.072-0.020 1.48 0.155 0.153 0.404 0.252 0.618 0.168 0.209-0.084 0.155-0.406 0.293-0.41 0.642-0.019 0.211 0.849-0.086 1.008-0.525 0.282-1.204-0.013-1.526-0.467-0.716-1.014-0.125-2.395 0.93-2.89 1.13-0.528 2.432-0.143 3.231 0.776 0.81 0.933 0.935 2.277 0.491 3.402-0.423 1.075-1.119 2.085-1.676 3.094-0.089 0.161-0.177 0.321-0.266 0.482-0.053 0.096 0.058 0.283 0.088 0.379 0.182 0.567 0.326 1.171 0.57 1.716 0.482 1.072 1.664 1.846 2.858 1.579 1.072-0.239 2.008-1.396 1.452-2.499-0.223-0.441-0.711-0.769-1.218-0.635-0.37 0.099-0.691 0.635-0.216 0.828zM8.104 18.864c2.114 1.162 4.7 1.313 6.936 0.413 0.989-0.398 1.897-0.991 2.659-1.737 0.786-0.771 1.546-1.736 1.712-2.854 0.18-1.206-0.409-2.502-1.529-3.043-1.015-0.489-2.337-0.233-2.926 0.777-0.267 0.458-0.314 1.045-0.073 1.523 0.247 0.488 0.912 0.897 1.43 0.534 0.176-0.124 0.313-0.354 0.214-0.572-0.078-0.152-0.328-0.113-0.127-0.314 0.496-0.497 0.843 0.561 0.722 0.911-0.428 1.242-2.097 0.929-2.736 0.080-0.716-0.957-0.462-2.299 0.338-3.113 0.879-0.895 2.248-1.051 3.377-0.579s1.874 1.576 2.076 2.757c0.381 2.241-1.447 4.304-3.173 5.471-1.842 1.244-4.126 1.762-6.325 1.429-1.511-0.229-2.953-0.852-4.158-1.793 0.516 0.13 1.055 0.166 1.583 0.108zM7.788 4.788c-1.86 1.132-3.212 3-3.702 5.122-0.263 1.141-0.275 2.339-0.036 3.486 0.247 1.183 0.728 2.499 1.7 3.275 0.924 0.738 2.265 0.88 3.291 0.266 1.006-0.603 1.497-1.936 0.897-2.99-0.261-0.459-0.748-0.797-1.282-0.826-0.54-0.029-1.243 0.34-1.179 0.973 0.020 0.209 0.155 0.453 0.391 0.469 0.17 0.015 0.26-0.23 0.334 0.047 0.179 0.672-0.908 0.46-1.15 0.173-0.84-0.996 0.227-2.286 1.297-2.41 1.211-0.147 2.253 0.776 2.542 1.902 0.307 1.192-0.243 2.433-1.201 3.16-0.975 0.74-2.299 0.836-3.424 0.418-2.37-0.882-3.202-3.966-3.17-6.247 0.030-2.077 0.801-4.109 2.156-5.683 0.923-1.075 2.102-1.92 3.416-2.451-0.368 0.383-0.667 0.831-0.881 1.317-2.427 1.475 0.101-0.228 0 0zM20.135 11.554c-0.092-4.037-3.257-7.483-7.276-7.901-1.183-0.124-2.349 0.092-3.167 1.024-0.78 0.888-0.966 2.264-0.263 3.257 0.657 0.918 2.188 1.322 2.972 0.318 0.332-0.426 0.428-1.067 0.021-1.482-0.153-0.155-0.404-0.251-0.617-0.167-0.21 0.083-0.156 0.409-0.294 0.412-0.639 0.014-0.216-0.848 0.085-1.007 0.531-0.28 1.198 0.007 1.525 0.464 0.726 1.013 0.12 2.394-0.93 2.89-1.126 0.531-2.433 0.141-3.231-0.774-0.811-0.934-0.934-2.276-0.489-3.402 0.443-1.123 1.467-1.931 2.62-2.229 1.007-0.26 2.118-0.117 3.115 0.135 1.89 0.478 3.591 1.593 4.798 3.123 1.503 1.905 2.153 4.362 1.828 6.762-0.149-0.51-0.38-0.996-0.697-1.423-0.101-4.42 0.149 0.202 0 0z"></path>
</symbol>
<symbol id="icon-triskelion-dark" viewBox="0 0 24 24">
<title>triskelion-dark</title>
<path d="M12.006 2.729c-4.973 0-9.004 4.031-9.004 9.004s4.032 9.004 9.004 9.004 9.004-4.031 9.004-9.004-4.032-9.004-9.004-9.004zM4.371 11.624c0.026-1.78 0.687-3.521 1.847-4.871 0.792-0.921 1.802-1.645 2.928-2.101-0.317 0.329-0.573 0.712-0.756 1.129-1.595 0.969-2.753 2.572-3.173 4.391-0.226 0.978-0.236 2.005-0.031 2.987 0.212 1.014 0.624 2.143 1.456 2.807 0.792 0.633 1.94 0.754 2.821 0.228 0.862-0.516 1.283-1.66 0.769-2.562-0.224-0.394-0.641-0.684-1.099-0.708-0.463-0.025-1.066 0.292-1.011 0.834 0.017 0.179 0.134 0.388 0.335 0.401 0.145 0.014 0.223-0.197 0.287 0.041 0.154 0.576-0.778 0.393-0.985 0.147-0.72-0.854 0.195-1.96 1.112-2.066 1.039-0.126 1.931 0.666 2.178 1.631 0.263 1.020-0.208 2.085-1.029 2.707-0.835 0.635-1.97 0.717-2.934 0.359-2.030-0.756-2.743-3.4-2.715-5.355zM13.518 6.872c-0.564-0.795-1.874-1.132-2.55-0.274-0.284 0.36-0.369 0.918-0.017 1.267 0.133 0.132 0.347 0.217 0.53 0.143 0.179-0.072 0.133-0.347 0.251-0.351 0.55-0.016 0.18 0.728-0.074 0.864-0.45 0.242-1.033-0.011-1.308-0.401-0.613-0.869-0.108-2.053 0.798-2.476 0.968-0.453 2.084-0.123 2.769 0.665 0.695 0.8 0.801 1.952 0.421 2.917-0.363 0.921-0.959 1.787-1.436 2.651-0.077 0.139-0.152 0.275-0.229 0.413-0.045 0.082 0.050 0.242 0.076 0.325 0.156 0.486 0.279 1.004 0.488 1.471 0.413 0.918 1.426 1.582 2.45 1.353 0.919-0.205 1.721-1.197 1.244-2.142-0.191-0.378-0.61-0.66-1.045-0.544-0.317 0.085-0.591 0.544-0.185 0.709-0.029 0.245-0.338 0.243-0.491 0.135-0.179-0.128-0.251-0.346-0.243-0.558 0.017-0.513 0.524-0.889 1.001-0.933 1.009-0.095 1.783 0.856 1.752 1.814-0.033 1.036-0.793 1.871-1.772 2.135-1.009 0.271-2.070-0.104-2.768-0.858-0.309-0.332-0.525-0.745-0.759-1.132-0.306-0.509-0.613-1.017-0.921-1.525-0.156-0.26-0.215-0.514-0.515-0.579-0.454-0.098-0.908-0.208-1.365-0.296-1.009-0.216-2.134 0.233-2.58 1.197-0.391 0.849-0.078 2.084 0.924 2.322 0.446 0.106 0.98-0.038 1.181-0.484 0.080-0.181 0.091-0.412-0.035-0.577-0.055-0.072-0.146-0.137-0.239-0.142-0.056-0.005-0.179 0.101-0.209 0.089-0.159-0.119-0.078-0.346 0.053-0.446 0.166-0.128 0.395-0.115 0.577-0.034 0.481 0.214 0.617 0.822 0.453 1.286-0.329 0.973-1.57 1.218-2.4 0.764-0.925-0.504-1.309-1.605-1.064-2.6 0.254-1.034 1.12-1.787 2.14-2.020 0.445-0.102 0.907-0.085 1.36-0.093 0.594-0.012 1.187-0.023 1.781-0.034 0.304-0.007 0.552 0.069 0.759-0.157 0.312-0.344 0.633-0.683 0.936-1.034 0.69-0.76 0.871-1.966 0.257-2.829zM16.289 18.065c-1.579 1.066-3.537 1.51-5.421 1.225-1.295-0.196-2.531-0.73-3.563-1.536 0.442 0.11 0.904 0.142 1.357 0.092 1.812 0.996 4.027 1.126 5.944 0.355 0.849-0.341 1.627-0.85 2.28-1.489 0.674-0.661 1.325-1.488 1.468-2.446 0.155-1.034-0.35-2.144-1.311-2.608-0.87-0.42-2.003-0.2-2.508 0.666-0.23 0.392-0.269 0.895-0.062 1.306 0.212 0.419 0.782 0.768 1.226 0.457 0.152-0.106 0.268-0.302 0.183-0.489-0.067-0.131-0.281-0.097-0.109-0.269 0.425-0.425 0.723 0.482 0.618 0.781-0.367 1.064-1.797 0.797-2.345 0.068-0.614-0.82-0.396-1.97 0.29-2.669 0.753-0.766 1.927-0.9 2.894-0.495s1.607 1.351 1.778 2.362c0.328 1.92-1.24 3.69-2.719 4.69zM18.974 11.579c-0.078-3.46-2.792-6.413-6.237-6.773-1.014-0.107-2.013 0.078-2.714 0.878-0.669 0.762-0.828 1.941-0.225 2.791 0.563 0.787 1.876 1.133 2.548 0.273 0.285-0.365 0.367-0.915 0.018-1.27-0.132-0.134-0.347-0.215-0.529-0.143-0.18 0.071-0.134 0.35-0.252 0.353-0.547 0.012-0.185-0.727 0.074-0.863 0.454-0.24 1.026 0.007 1.307 0.398 0.622 0.867 0.104 2.052-0.798 2.477-0.965 0.455-2.085 0.121-2.769-0.665-0.695-0.801-0.8-1.952-0.419-2.916 0.38-0.963 1.258-1.655 2.245-1.91 0.863-0.223 1.816-0.101 2.671 0.115 1.619 0.41 3.078 1.366 4.111 2.677 1.288 1.633 1.846 3.738 1.567 5.797-0.128-0.437-0.326-0.854-0.597-1.22z"></path>
</symbol>
<symbol id="icon-trophy" viewBox="0 0 24 24">
<title>trophy</title>
<path d="M20.941 4.669c-0.26-0.296-0.635-0.464-1.029-0.464h-2.665c0.041-0.582 0.069-1.177 0.069-1.796 0-0.006-0.002-0.012-0.002-0.017h-10.619c0 0.006 0 0.012 0 0.017 0 0.618 0.028 1.213 0.069 1.796h-2.665c-0.394 0-0.769 0.17-1.030 0.464s-0.381 0.688-0.333 1.079c0.494 3.939 3.674 7.017 7.675 7.673-0.078 0.196-0.123 0.407-0.123 0.631 0 0.56 0.454 0.9 0.687 1.366 0.227 0.457 0.224 1.584 0 2.043-0.394 0.802-2.83 2.189-2.83 2.189h7.719c0 0-2.436-1.387-2.83-2.19-0.224-0.458-0.227-1.586 0-2.043 0.232-0.466 0.687-0.806 0.687-1.366 0-0.224-0.047-0.435-0.123-0.631 4.001-0.656 7.181-3.734 7.674-7.673 0.050-0.39-0.072-0.783-0.333-1.078zM4.101 5.578h2.8c0.332 2.541 1.063 4.622 2.036 6.020-2.596-1.021-4.495-3.295-4.836-6.020zM15.076 11.599c0.973-1.399 1.702-3.479 2.036-6.020h2.8c-0.341 2.725-2.242 4.998-4.836 6.020zM6.753 20.401h10.505v1.501h-10.505v-1.501z"></path>
</symbol>
<symbol id="icon-point" viewBox="0 0 24 24">
<title>point</title>
<path d="M11.981 2.392c-4.973 0.014-8.993 4.056-8.98 9.029 0.015 4.973 4.056 8.994 9.029 8.98 4.974-0.014 8.993-4.056 8.98-9.029s-4.056-8.994-9.029-8.98zM11.943 12.897h-2.251v2.251h-1.501v-2.251h-2.251v-1.501h2.251v-2.251h1.501v2.251h2.251v1.501zM16.795 15.877h-2.125v-5.433c0-0.217-0.023-0.395-0.069-0.54s-0.12-0.242-0.224-0.299c-0.104-0.056-0.269-0.094-0.492-0.114l-0.566-0.022h-0.251v-1.014c0.566-0.146 1.027-0.337 1.388-0.57 0.358-0.235 0.765-0.557 1.219-0.969h1.12v8.961z"></path>
</symbol>
<symbol id="icon-set" viewBox="0 0 24 24">
<title>set</title>
<path d="M12.006 2.392c-4.973 0-9.004 4.032-9.004 9.004s4.031 9.004 9.004 9.004 9.004-4.032 9.004-9.004-4.031-9.004-9.004-9.004zM12.006 18.149c-3.73 0-6.753-3.023-6.753-6.753s3.023-6.753 6.753-6.753 6.753 3.023 6.753 6.753-3.023 6.753-6.753 6.753zM14.257 8.408c0 1.243-1.008 2.251-2.251 2.251s-2.251-1.008-2.251-2.251c0-1.243 1.008-2.251 2.251-2.251s2.251 1.008 2.251 2.251zM11.558 13.617c0 1.243-1.008 2.251-2.251 2.251s-2.251-1.008-2.251-2.251c0-1.243 1.008-2.251 2.251-2.251s2.251 1.008 2.251 2.251zM16.956 13.71c0 1.243-1.008 2.251-2.251 2.251s-2.251-1.008-2.251-2.251c0-1.243 1.008-2.251 2.251-2.251s2.251 1.008 2.251 2.251z"></path>
</symbol>
<symbol id="icon-state" viewBox="0 0 24 24">
<title>state</title>
<path d="M3.752 3.142v16.508h16.508v-16.508h-16.508zM6.003 17.298v-11.905h11.905l-11.905 11.905z"></path>
</symbol>
<symbol id="icon-badge" viewBox="0 0 24 24">
<title>badge</title>
<path d="M19.645 5.048c-0.329 0.040-0.666 0.067-1.005 0.067-2.654 0-5-1.253-6.526-3.188l-0.107-0.132-0.109 0.132c-1.524 1.934-3.87 3.188-6.524 3.188-0.341 0-0.675-0.027-1.005-0.067-0.303 1.228-0.476 2.541-0.476 3.912 0 6.35 3.527 11.533 8.006 12.037h0.215c4.48-0.504 8.008-5.687 8.008-12.037 0-1.371-0.174-2.683-0.476-3.912zM14.835 12.843l0.418 3.548-3.247-1.494-3.246 1.494 0.419-3.548-2.426-2.626 3.506-0.699 1.747-3.117 1.748 3.117 3.504 0.699-2.424 2.626z"></path>
</symbol>
<symbol id="icon-rank" viewBox="0 0 24 24">
<title>rank</title>
<path d="M4.517 12.306l0.002 0.003 7.485-7.485 7.485 7.485 0.005-0.005v-3.173l-7.49-7.49-7.487 7.488zM4.517 19.647l0.002 0.003 7.485-7.485 7.485 7.485 0.005-0.005v-3.172l-7.49-7.491-7.487 7.488z"></path>
</symbol>
<symbol id="icon-metric" viewBox="0 0 24 24">
<title>metric</title>
<path d="M7.414 1.792l0.834 0.835-5.016 5.007-0.834-0.835 5.016-5.007zM9.082 3.46l0.835 0.835-1.88 1.88-0.835-0.835 1.88-1.88zM10.751 5.13l0.837 0.834-1.877 1.884-0.837-0.834 1.877-1.884zM12.423 6.801l0.835 0.835-1.879 1.879-0.835-0.835 1.879-1.879zM14.094 8.472l0.835 0.835-5.011 5.011-0.835-0.835 5.011-5.011zM15.766 10.144l0.834 0.835-1.88 1.877-0.834-0.835 1.88-1.877zM17.435 11.813l0.835 0.835-1.879 1.879-0.835-0.835 1.879-1.879zM19.106 13.483l0.835 0.835-1.88 1.88-0.835-0.835 1.88-1.88zM20.777 15.155l0.835 0.835-5.012 5.012-0.835-0.835 5.012-5.012zM14.005 14.506l-3.485 3.484-0.827-0.827 2.113-2.113c0.083-0.083 0.145-0.161 0.183-0.236 0.038-0.072 0.047-0.141 0.028-0.203-0.019-0.063-0.066-0.141-0.145-0.236l-0.212-0.229-0.097-0.098 0.394-0.394c0.277 0.163 0.531 0.269 0.761 0.317 0.23 0.050 0.515 0.082 0.852 0.098l0.436 0.436z"></path>
</symbol>
<symbol id="icon-round-plus" viewBox="0 0 24 24">
<title>round-plus</title>
<path d="M16.508 10.271h-3.377v-3.377h-2.251v3.377h-3.377v2.251h3.377v3.377h2.251v-3.377h3.377zM12.006 2.392c-4.973 0-9.004 4.032-9.004 9.004s4.031 9.004 9.004 9.004 9.004-4.032 9.004-9.004-4.031-9.004-9.004-9.004zM12.006 18.149c-3.73 0-6.753-3.023-6.753-6.753s3.023-6.753 6.753-6.753 6.753 3.023 6.753 6.753-3.023 6.753-6.753 6.753z"></path>
</symbol>
<symbol id="icon-round-plus-fill" viewBox="0 0 24 24">
<title>round-plus-fill</title>
<path d="M12.006 2.392c-4.973 0-9.004 4.032-9.004 9.004s4.031 9.004 9.004 9.004 9.004-4.032 9.004-9.004-4.031-9.004-9.004-9.004zM16.508 12.522h-3.377v3.377h-2.251v-3.377h-3.377v-2.251h3.377v-3.377h2.251v3.377h3.377v2.251z"></path>
</symbol>
<symbol id="icon-round-minus" viewBox="0 0 24 24">
<title>round-minus</title>
<path d="M7.504 10.271h9.004v2.251h-9.004v-2.251zM12.006 2.392c-4.973 0-9.004 4.032-9.004 9.004s4.031 9.004 9.004 9.004 9.004-4.032 9.004-9.004-4.031-9.004-9.004-9.004zM12.006 18.149c-3.73 0-6.753-3.023-6.753-6.753s3.023-6.753 6.753-6.753 6.753 3.023 6.753 6.753-3.023 6.753-6.753 6.753z"></path>
</symbol>
<symbol id="icon-round-minus-fill" viewBox="0 0 24 24">
<title>round-minus-fill</title>
<path d="M12.006 2.392c-4.973 0-9.004 4.032-9.004 9.004s4.031 9.004 9.004 9.004 9.004-4.032 9.004-9.004-4.031-9.004-9.004-9.004zM16.508 12.522h-9.004v-2.251h9.004v2.251z"></path>
</symbol>
<symbol id="icon-round-cross" viewBox="0 0 24 24">
<title>round-cross</title>
<path d="M15.986 13.784l-2.388-2.388 2.388-2.388-1.592-1.592-2.388 2.388-2.388-2.388-1.592 1.592 2.388 2.388-2.388 2.388 1.592 1.592 2.388-2.388 2.388 2.388zM18.373 5.029c-3.517-3.517-9.217-3.517-12.734 0s-3.517 9.218 0 12.734 9.217 3.517 12.734 0 3.517-9.218 0-12.734zM7.231 16.171c-2.638-2.637-2.638-6.913 0-9.551s6.914-2.638 9.551 0 2.638 6.914 0 9.551c-2.638 2.638-6.915 2.638-9.551 0z"></path>
</symbol>
<symbol id="icon-round-cross-fill" viewBox="0 0 24 24">
<title>round-cross-fill</title>
<path d="M18.373 5.029c-3.517-3.517-9.217-3.517-12.734 0s-3.517 9.218 0 12.734 9.217 3.517 12.734 0 3.517-9.218 0-12.734zM14.394 15.375l-2.388-2.388-2.388 2.388-1.592-1.592 2.388-2.388-2.388-2.388 1.592-1.592 2.388 2.388 2.388-2.388 1.592 1.592-2.388 2.388 2.388 2.388-1.592 1.592z"></path>
</symbol>
<symbol id="icon-help" viewBox="0 0 24 24">
<title>help</title>
<path d="M12.006 2.762c-4.973 0-9.004 4.032-9.004 9.004s4.031 9.004 9.004 9.004 9.004-4.032 9.004-9.004-4.031-9.004-9.004-9.004zM12.006 18.52c-3.73 0-6.753-3.023-6.753-6.753s3.023-6.753 6.753-6.753 6.753 3.023 6.753 6.753-3.023 6.753-6.753 6.753zM10.847 13.242v-0.449c0-0.389 0.083-0.726 0.249-1.014s0.469-0.592 0.91-0.916c0.425-0.303 0.705-0.55 0.84-0.74s0.203-0.403 0.203-0.638c0-0.263-0.098-0.463-0.292-0.601s-0.465-0.206-0.813-0.206c-0.607 0-1.298 0.199-2.076 0.595l-0.662-1.329c0.902-0.506 1.859-0.759 2.87-0.759 0.834 0 1.496 0.201 1.988 0.601 0.491 0.401 0.737 0.935 0.737 1.604 0 0.445-0.101 0.829-0.303 1.153s-0.586 0.688-1.153 1.093c-0.389 0.287-0.635 0.506-0.738 0.655s-0.155 0.346-0.155 0.589v0.364h-1.607zM10.652 15.318c0-0.34 0.091-0.597 0.273-0.771s0.447-0.261 0.795-0.261c0.335 0 0.596 0.089 0.78 0.266s0.276 0.433 0.276 0.765c0 0.32-0.093 0.572-0.279 0.756s-0.446 0.276-0.777 0.276c-0.34 0-0.603-0.091-0.789-0.27s-0.279-0.434-0.279-0.762z"></path>
</symbol>
<symbol id="icon-round-question-fill" viewBox="0 0 24 24">
<title>round-question-fill</title>
<path d="M12.006 2.762c-4.973 0-9.004 4.032-9.004 9.004s4.031 9.004 9.004 9.004 9.004-4.032 9.004-9.004-4.031-9.004-9.004-9.004zM12.497 16.073c-0.186 0.184-0.446 0.276-0.777 0.276-0.34 0-0.603-0.091-0.789-0.27s-0.279-0.434-0.279-0.762c0-0.34 0.091-0.597 0.273-0.771s0.447-0.261 0.795-0.261c0.335 0 0.596 0.089 0.78 0.266s0.276 0.433 0.276 0.765c0 0.32-0.093 0.572-0.279 0.756zM14.5 10.541c-0.203 0.324-0.586 0.688-1.153 1.093-0.389 0.287-0.635 0.506-0.738 0.655s-0.155 0.346-0.155 0.589v0.364h-1.609v-0.449c0-0.389 0.083-0.726 0.249-1.014s0.469-0.592 0.91-0.916c0.425-0.303 0.705-0.55 0.84-0.74s0.203-0.403 0.203-0.638c0-0.263-0.098-0.463-0.292-0.601s-0.465-0.206-0.813-0.206c-0.607 0-1.298 0.199-2.076 0.595l-0.662-1.329c0.902-0.506 1.859-0.759 2.87-0.759 0.834 0 1.496 0.201 1.988 0.601 0.491 0.401 0.737 0.935 0.737 1.604 0.002 0.446-0.099 0.831-0.302 1.153z"></path>
</symbol>
<symbol id="icon-round-exclaimation" viewBox="0 0 24 24">
<title>round-exclaimation</title>
<path d="M12.006 2.762c-4.973 0-9.004 4.032-9.004 9.004s4.031 9.004 9.004 9.004 9.004-4.032 9.004-9.004-4.031-9.004-9.004-9.004zM12.006 18.52c-3.73 0-6.753-3.023-6.753-6.753s3.023-6.753 6.753-6.753 6.753 3.023 6.753 6.753-3.023 6.753-6.753 6.753zM10.943 15.254c0-0.34 0.091-0.597 0.274-0.771 0.182-0.173 0.447-0.261 0.795-0.261 0.335 0 0.597 0.089 0.78 0.267 0.185 0.178 0.277 0.433 0.277 0.765 0 0.32-0.094 0.572-0.28 0.756s-0.444 0.275-0.777 0.275c-0.34 0-0.603-0.089-0.789-0.269s-0.28-0.434-0.28-0.762zM12.759 13.178h-1.482l-0.309-5.929h2.1l-0.309 5.929z"></path>
</symbol>
<symbol id="icon-round-exclaimation-fill" viewBox="0 0 24 24">
<title>round-exclaimation-fill</title>
<path d="M12.006 2.762c-4.973 0-9.004 4.032-9.004 9.004s4.031 9.004 9.004 9.004 9.004-4.032 9.004-9.004-4.031-9.004-9.004-9.004zM12.788 16.009c-0.186 0.184-0.444 0.275-0.777 0.275-0.34 0-0.603-0.089-0.789-0.269s-0.28-0.434-0.28-0.762c0-0.34 0.091-0.597 0.274-0.771 0.182-0.173 0.447-0.261 0.795-0.261 0.335 0 0.597 0.089 0.78 0.267 0.185 0.178 0.277 0.433 0.277 0.765 0 0.32-0.094 0.572-0.28 0.756zM12.759 13.178h-1.482l-0.309-5.929h2.1l-0.309 5.929z"></path>
</symbol>
<symbol id="icon-warning" viewBox="0 0 24 24">
<title>warning</title>
<path d="M12.006 2.206l-10.505 18.196h21.010l-10.505-18.196zM12.006 6.402l6.874 11.905h-13.748l6.874-11.905zM11.020 16.885c0-0.315 0.084-0.553 0.254-0.715 0.169-0.161 0.415-0.242 0.737-0.242 0.312 0 0.554 0.083 0.724 0.248 0.172 0.166 0.257 0.402 0.257 0.709 0 0.297-0.087 0.531-0.26 0.702-0.172 0.171-0.412 0.256-0.721 0.256-0.315 0-0.559-0.083-0.732-0.25s-0.26-0.403-0.26-0.708zM12.705 14.96h-1.375l-0.287-5.505h1.949l-0.287 5.505z"></path>
</symbol>
<symbol id="icon-warning-fill" viewBox="0 0 24 24">
<title>warning-fill</title>
<path d="M11.977 2.206l-10.505 18.196h21.010l-10.505-18.196zM12.992 9.429l-0.287 5.505h-1.375l-0.287-5.505h1.949zM12.732 17.563c-0.172 0.171-0.412 0.256-0.721 0.256-0.315 0-0.559-0.083-0.732-0.25s-0.26-0.403-0.26-0.708c0-0.315 0.084-0.553 0.254-0.715 0.169-0.161 0.415-0.242 0.737-0.242 0.312 0 0.554 0.083 0.724 0.248 0.172 0.166 0.257 0.402 0.257 0.709 0 0.297-0.087 0.531-0.26 0.702z"></path>
</symbol>
<symbol id="icon-round-asterisk" viewBox="0 0 24 24">
<title>round-asterisk</title>
<path d="M12.006 2.688c-4.973 0-9.004 4.031-9.004 9.004s4.031 9.004 9.004 9.004 9.004-4.032 9.004-9.004c0-4.973-4.031-9.004-9.004-9.004zM12.006 18.446c-3.73 0-6.753-3.023-6.753-6.753s3.023-6.753 6.753-6.753 6.753 3.023 6.753 6.753-3.023 6.753-6.753 6.753zM17.179 11.431l-0.766-2.358-3.636 1.674 0.468-3.975h-2.478l0.468 3.975-3.636-1.674-0.766 2.358 3.926 0.783-2.716 2.94 2.006 1.457 1.957-3.491 1.957 3.491 2.006-1.457-2.716-2.94z"></path>
</symbol>
<symbol id="icon-round-asterisk-fill" viewBox="0 0 24 24">
<title>round-asterisk-fill</title>
<path d="M12.006 2.688c-4.973 0-9.004 4.031-9.004 9.004s4.032 9.004 9.004 9.004c4.974 0 9.004-4.032 9.004-9.004s-4.030-9.004-9.004-9.004zM15.969 15.154l-2.005 1.457-1.958-3.491-1.956 3.491-2.006-1.457 2.716-2.94-3.924-0.783 0.765-2.358 3.636 1.673-0.468-3.974h2.478l-0.469 3.975 3.636-1.673 0.766 2.358-3.926 0.783 2.715 2.939z"></path>
</symbol>
<symbol id="icon-round-tick" viewBox="0 0 24 24">
<title>round-tick</title>
<path d="M17.078 9.529l-1.592-1.592-4.498 4.498-2.463-2.462-1.592 1.592 4.039 4.038zM12.006 2.392c-4.973 0-9.004 4.030-9.004 9.004 0 4.973 4.032 9.004 9.004 9.004 4.974 0 9.004-4.032 9.004-9.004 0-4.974-4.030-9.004-9.004-9.004zM12.006 18.149c-3.73 0-6.753-3.023-6.753-6.753s3.023-6.754 6.753-6.754c3.73 0.001 6.753 3.024 6.753 6.754s-3.023 6.753-6.753 6.753z"></path>
</symbol>
<symbol id="icon-round-tick-fill" viewBox="0 0 24 24">
<title>round-tick-fill</title>
<path d="M12.006 2.392c-4.973 0-9.004 4.030-9.004 9.004 0 4.973 4.032 9.004 9.004 9.004 4.974 0 9.004-4.032 9.004-9.004 0-4.974-4.030-9.004-9.004-9.004zM6.935 11.567l1.592-1.592 2.462 2.461 4.498-4.498 1.592 1.592-6.075 6.076z"></path>
</symbol>
<symbol id="icon-round-info" viewBox="0 0 24 24">
<title>round-info</title>
<path d="M12.006 2.688c-4.973 0-9.004 4.031-9.004 9.004s4.032 9.004 9.004 9.004c4.974 0 9.004-4.032 9.004-9.004s-4.030-9.004-9.004-9.004zM12.006 18.446c-3.73 0-6.753-3.023-6.753-6.753s3.023-6.753 6.753-6.753 6.753 3.023 6.753 6.753-3.023 6.753-6.753 6.753zM10.88 10.224h2.251v5.929h-2.251v-5.929zM13.131 8.355c0 0.622-0.504 1.126-1.126 1.126s-1.126-0.504-1.126-1.126c0-0.622 0.504-1.126 1.126-1.126s1.126 0.504 1.126 1.126z"></path>
</symbol>
<symbol id="icon-round-info-fill" viewBox="0 0 24 24">
<title>round-info-fill</title>
<path d="M12.006 2.688c-4.973 0-9.004 4.031-9.004 9.004s4.032 9.004 9.004 9.004c4.974 0 9.004-4.032 9.004-9.004s-4.030-9.004-9.004-9.004zM13.131 16.154h-2.251v-5.929h2.251v5.929zM12.006 9.481c-0.621 0-1.126-0.504-1.126-1.126s0.504-1.126 1.126-1.126 1.126 0.504 1.126 1.126-0.504 1.126-1.126 1.126z"></path>
</symbol>
<symbol id="icon-round-disable" viewBox="0 0 24 24">
<title>round-disable</title>
<path d="M14.393 7.417l1.592 1.591-6.364 6.368-1.592-1.591 6.364-6.368zM12.006 2.392c-4.973 0-9.004 4.032-9.004 9.006 0 4.971 4.031 9.004 9.004 9.004s9.004-4.033 9.004-9.004c0-4.974-4.031-9.006-9.004-9.006zM12.006 18.149c-3.73 0-6.753-3.023-6.753-6.752 0-3.73 3.023-6.753 6.753-6.753s6.753 3.023 6.753 6.753c0.001 3.729-3.023 6.752-6.753 6.752z"></path>
</symbol>
<symbol id="icon-round-disable-fill" viewBox="0 0 24 24">
<title>round-disable-fill</title>
<path d="M12.006 2.392c-4.973 0-9.004 4.032-9.004 9.006 0 4.971 4.032 9.004 9.004 9.004 4.974 0 9.004-4.033 9.004-9.004 0-4.974-4.030-9.006-9.004-9.006zM9.618 15.375l-1.592-1.592 6.366-6.365 1.593 1.592-6.368 6.365z"></path>
</symbol>
<symbol id="icon-power-off" viewBox="0 0 24 24">
<title>power-off</title>
<path d="M12.006 2.832c-4.973 0-9.004 4.032-9.004 9.004s4.032 9.004 9.004 9.004c4.974 0 9.004-4.032 9.004-9.004s-4.030-9.004-9.004-9.004zM12.006 18.589c-3.73 0-6.753-3.023-6.753-6.753s3.023-6.753 6.753-6.753 6.753 3.023 6.753 6.753-3.023 6.753-6.753 6.753zM10.88 7.598h2.251v8.477h-2.251v-8.477z"></path>
</symbol>
<symbol id="icon-target" viewBox="0 0 24 24">
<title>target</title>
<path d="M22.463 10.271h-1.53c-0.509-4.071-3.73-7.293-7.802-7.801v-1.531h-2.251v1.53c-4.071 0.509-7.291 3.73-7.801 7.802h-1.531v2.251h1.53c0.509 4.071 3.73 7.293 7.801 7.801v1.53h2.251v-1.53c4.071-0.509 7.293-3.73 7.801-7.801h1.53v-2.251zM13.131 18.048v-2.199h-2.251v2.199c-2.826-0.475-5.051-2.701-5.526-5.526h2.199v-2.251h-2.199c0.476-2.826 2.701-5.051 5.526-5.526v2.199h2.251v-2.199c2.826 0.475 5.051 2.701 5.526 5.526h-2.199v2.251h2.199c-0.475 2.826-2.699 5.051-5.526 5.526zM13.882 11.396c0 1.036-0.84 1.876-1.876 1.876s-1.876-0.84-1.876-1.876c0-1.036 0.84-1.876 1.876-1.876s1.876 0.84 1.876 1.876z"></path>
</symbol>
<symbol id="icon-star-fill" viewBox="0 0 24 24">
<title>star-fill</title>
<path d="M12.006 2.573l3.086 5.505 6.191 1.236-4.282 4.637 0.739 6.269-5.734-2.638-5.734 2.638 0.738-6.269-4.281-4.637 6.189-1.236z"></path>
</symbol>
<symbol id="icon-star" viewBox="0 0 24 24">
<title>star</title>
<path d="M21.283 9.314l-6.191-1.235-3.086-5.505-3.088 5.505-6.189 1.235 4.281 4.637-0.737 6.269 5.733-2.638 5.734 2.638-0.738-6.269 4.282-4.637zM12.006 15.929l-3.93 1.808 0.506-4.297-2.934-3.179 4.243-0.847 2.116-3.774 2.116 3.774 4.243 0.847-2.935 3.179 0.506 4.297-3.929-1.808z"></path>
</symbol>
<symbol id="icon-heart-fill" viewBox="0 0 24 24">
<title>heart-fill</title>
<path d="M22.511 7.214c0-3.155-2.557-5.713-5.711-5.713-2.012 0-3.777 1.044-4.794 2.614-1.017-1.571-2.782-2.614-4.794-2.614-3.154 0-5.711 2.557-5.711 5.713 0 0.966 0.156 1.927 0.666 2.674 2.126 3.108 8.725 8.167 9.84 11.407 1.083-3.255 7.714-8.3 9.84-11.408 0.51-0.746 0.666-1.707 0.666-2.673z"></path>
</symbol>
<symbol id="icon-heart" viewBox="0 0 24 24">
<title>heart</title>
<path d="M16.8 1.501c-2.012 0-3.777 1.044-4.794 2.614-1.017-1.571-2.782-2.614-4.794-2.614-3.154 0-5.711 2.557-5.711 5.713 0 0.966 0.156 1.927 0.666 2.674 2.126 3.108 8.725 8.167 9.84 11.407 1.083-3.255 7.714-8.3 9.84-11.408 0.51-0.746 0.666-1.707 0.666-2.673 0-3.155-2.557-5.713-5.711-5.713zM20.607 9.041c-0.779 1.139-2.318 2.656-3.948 4.261-1.704 1.678-3.445 3.392-4.661 5.017-1.214-1.61-2.94-3.318-4.629-4.986-1.635-1.618-3.179-3.146-3.964-4.293-0.266-0.391-0.403-1.006-0.403-1.826 0-2.322 1.889-4.21 4.21-4.21 1.431 0 2.752 0.721 3.534 1.928l1.26 1.946 1.26-1.946c0.782-1.207 2.103-1.928 3.534-1.928 2.322 0 4.21 1.889 4.21 4.21 0 0.819-0.137 1.435-0.404 1.827z"></path>
</symbol>
<symbol id="icon-flag-fill" viewBox="0 0 24 24">
<title>flag-fill</title>
<path d="M1.501 2.392h2.251v18.009h-2.251v-18.009zM9.365 10.611c-0.635 0-1.332 0.198-2.091 0.595s-1.464 0.915-2.111 1.555v-9.76c1.198-1.291 2.658-1.936 4.382-1.936 0.814 0 1.56 0.082 2.237 0.248 0.675 0.166 1.547 0.473 2.611 0.924 0.791 0.331 1.48 0.578 2.067 0.737s1.162 0.24 1.724 0.24c0.646 0 1.353-0.191 2.12-0.569 0.766-0.38 1.472-0.907 2.118-1.581v9.741c-1.22 1.304-2.682 1.955-4.382 1.955-0.861 0-1.67-0.098-2.424-0.293-0.754-0.197-1.562-0.482-2.424-0.861-0.898-0.38-1.617-0.641-2.155-0.783-0.54-0.141-1.095-0.212-1.671-0.212z"></path>
</symbol>
<symbol id="icon-flag" viewBox="0 0 24 24">
<title>flag</title>
<path d="M1.546 2.392h2.251v18.009h-2.251v-18.009zM20.347 2.645c-0.767 0.378-1.473 0.569-2.12 0.569-0.562 0-1.138-0.080-1.724-0.24s-1.275-0.406-2.066-0.737c-1.065-0.452-1.935-0.759-2.611-0.924s-1.422-0.248-2.237-0.248c-1.724 0-3.184 0.645-4.381 1.936v9.761c0.647-0.641 1.351-1.158 2.111-1.555s1.457-0.595 2.093-0.595c0.575 0 1.131 0.071 1.67 0.212 0.537 0.142 1.257 0.403 2.155 0.783 0.862 0.38 1.67 0.666 2.423 0.861 0.755 0.195 1.564 0.293 2.425 0.293 1.7 0 3.161-0.651 4.381-1.955v-9.744c-0.646 0.675-1.353 1.202-2.119 1.582zM20.888 10.194c-0.817 0.715-1.739 1.066-2.803 1.066-0.718 0-1.395-0.080-2.012-0.24-0.667-0.174-1.399-0.435-2.174-0.777-1-0.422-1.776-0.702-2.395-0.864-0.675-0.179-1.378-0.268-2.092-0.268-0.832 0-1.714 0.224-2.626 0.667v-6.171c0.804-0.709 1.708-1.042 2.803-1.042 0.681 0 1.301 0.068 1.842 0.201 0.591 0.143 1.387 0.428 2.364 0.841 0.87 0.365 1.613 0.629 2.271 0.809 0.728 0.198 1.454 0.299 2.16 0.299 0.842 0 1.736-0.218 2.661-0.649v6.129z"></path>
</symbol>
<symbol id="icon-circle" viewBox="0 0 24 24">
<title>circle</title>
<path d="M12.006 2.392c-4.974 0-9.004 4.032-9.004 9.004s4.030 9.004 9.004 9.004c4.973 0 9.004-4.032 9.004-9.004s-4.032-9.004-9.004-9.004zM12.006 18.149c-3.73 0-6.753-3.023-6.753-6.753s3.023-6.753 6.753-6.753 6.753 3.023 6.753 6.753-3.023 6.753-6.753 6.753z"></path>
</symbol>
<symbol id="icon-circle-fill" viewBox="0 0 24 24">
<title>circle-fill</title>
<path d="M12.006 2.392c-4.974 0-9.004 4.032-9.004 9.004s4.030 9.004 9.004 9.004c4.973 0 9.004-4.032 9.004-9.004s-4.032-9.004-9.004-9.004z"></path>
</symbol>
<symbol id="icon-circle-fill-right" viewBox="0 0 24 24">
<title>circle-fill-right</title>
<path d="M12.006 2.392c-4.974 0-9.004 4.032-9.004 9.004s4.030 9.004 9.004 9.004c4.973 0 9.004-4.032 9.004-9.004s-4.032-9.004-9.004-9.004zM12.006 18.149c-3.73 0-6.753-3.023-6.753-6.753s3.023-6.753 6.753-6.753v13.507z"></path>
</symbol>
<symbol id="icon-circle-fill-left" viewBox="0 0 24 24">
<title>circle-fill-left</title>
<path d="M12.006 20.401c4.974 0 9.004-4.032 9.004-9.004s-4.030-9.004-9.004-9.004c-4.973 0-9.004 4.032-9.004 9.004s4.032 9.004 9.004 9.004zM12.006 4.643c3.73 0 6.753 3.023 6.753 6.753s-3.023 6.753-6.753 6.753v-13.507z"></path>
</symbol>
<symbol id="icon-crown" viewBox="0 0 24 24">
<title>crown</title>
<path d="M21.816 7.316c-0.829 0-1.501 0.672-1.501 1.501 0 0.283 0.082 0.546 0.218 0.771l-5.848 4.533-2.002-8.234c0.91-0.29 1.573-1.132 1.573-2.135 0-1.243-1.008-2.251-2.251-2.251-1.244 0-2.251 1.008-2.251 2.251 0 1.004 0.663 1.845 1.571 2.136l-2 8.233-5.848-4.533c0.137-0.226 0.218-0.487 0.218-0.771 0-0.828-0.672-1.501-1.501-1.501s-1.501 0.672-1.501 1.501c0 0.829 0.672 1.501 1.501 1.501 0.035 0 0.069-0.008 0.103-0.011 0 0 2.782 5.866 2.829 7.985 0.025 1.176-1.375 3.001-1.375 3.001h16.508c0 0-1.401-1.826-1.375-3.001 0.046-2.118 2.827-7.985 2.827-7.985 0.035 0.003 0.069 0.011 0.104 0.011 0.829 0 1.501-0.672 1.501-1.501-0.002-0.828-0.672-1.501-1.502-1.501z"></path>
</symbol>
<symbol id="icon-leaderboard" viewBox="0 0 24 24">
<title>leaderboard</title>
<path d="M15.007 16.649v-7.504h-6.003v4.502h-6.003v7.504h18.009v-4.502zM12.964 1.221v6.423h-1.523v-3.894c0-0.155-0.016-0.284-0.049-0.387s-0.086-0.173-0.161-0.214c-0.075-0.040-0.193-0.068-0.353-0.082l-0.405-0.016h-0.18v-0.728c0.405-0.105 0.736-0.241 0.994-0.409s0.549-0.398 0.874-0.694h0.803z"></path>
</symbol>
<symbol id="icon-grid" viewBox="0 0 24 24">
<title>grid</title>
<path d="M3.001 2.392h4.502v4.502h-4.502v-4.502zM9.755 2.392h4.502v4.502h-4.502v-4.502zM16.508 2.392h4.502v4.502h-4.502v-4.502zM3.001 9.145h4.502v4.502h-4.502v-4.502zM9.755 9.145h4.502v4.502h-4.502v-4.502zM16.508 9.145h4.502v4.502h-4.502v-4.502zM3.001 15.898h4.502v4.502h-4.502v-4.502zM9.755 15.898h4.502v4.502h-4.502v-4.502zM16.508 15.898h4.502v4.502h-4.502v-4.502z"></path>
</symbol>
<symbol id="icon-list" viewBox="0 0 24 24">
<title>list</title>
<path d="M3.001 2.392h3.001v3.001h-3.001v-3.001zM8.254 2.392h12.756v3.001h-12.756v-3.001zM3.001 9.895h3.001v3.001h-3.001v-3.001zM8.254 9.895h12.756v3.001h-12.756v-3.001zM3.001 17.399h3.001v3.001h-3.001v-3.001zM8.254 17.399h12.756v3.001h-12.756v-3.001z"></path>
</symbol>
<symbol id="icon-filter" viewBox="0 0 24 24">
<title>filter</title>
<path d="M10.396 19.391l3.001 2.983v-11.832l8.145-8.15h-19.291l8.144 8.15z"></path>
</symbol>
<symbol id="icon-conversation" viewBox="0 0 24 24">
<title>conversation</title>
<path d="M10.505 11.389h12.006v9.004h-2.251v2.626l-2.626-2.626h-7.128zM8.254 9.138h11.255v-5.253h-18.009v12.006h2.251v3.377l2.626-3.377h1.876z"></path>
</symbol>
<symbol id="icon-message" viewBox="0 0 24 24">
<title>message</title>
<path d="M21.010 17.025v-12.006h-18.009v12.006h2.251v4.877l4.127-4.877z"></path>
</symbol>
<symbol id="icon-dice" viewBox="0 0 24 24">
<title>dice</title>
<path d="M18.759 3.142h-13.507c-0.828 0-1.501 0.672-1.501 1.501v13.507c0 0.828 0.672 1.501 1.501 1.501h13.507c0.829 0 1.501-0.672 1.501-1.501v-13.507c0-0.828-0.672-1.501-1.501-1.501zM7.348 18.525c-1.244 0-2.251-1.010-2.251-2.251 0-1.243 1.007-2.251 2.251-2.251 1.241 0 2.251 1.008 2.251 2.251 0 1.241-1.010 2.251-2.251 2.251zM7.348 8.77c-1.244 0-2.251-1.009-2.251-2.251 0-1.244 1.007-2.251 2.251-2.251 1.241 0 2.251 1.007 2.251 2.251 0 1.242-1.010 2.251-2.251 2.251zM12.006 13.647c-1.243 0-2.251-1.009-2.251-2.251 0-1.244 1.008-2.251 2.251-2.251 1.244 0 2.251 1.007 2.251 2.251 0 1.242-1.007 2.251-2.251 2.251zM16.665 18.525c-1.243 0-2.251-1.009-2.251-2.251 0-1.244 1.008-2.251 2.251-2.251 1.244 0 2.251 1.007 2.251 2.251 0 1.242-1.007 2.251-2.251 2.251zM16.665 8.77c-1.243 0-2.251-1.009-2.251-2.251 0-1.244 1.008-2.251 2.251-2.251 1.244 0 2.251 1.007 2.251 2.251 0 1.242-1.007 2.251-2.251 2.251z"></path>
</symbol>
<symbol id="icon-public" viewBox="0 0 24 24">
<title>public</title>
<path d="M12.006 2.756c-4.974 0-9.004 4.031-9.004 9.004s4.030 9.004 9.004 9.004c4.973 0 9.004-4.032 9.004-9.004s-4.032-9.004-9.004-9.004zM14.695 17.916c-2.38 1.029-4.681 0.702-6.822-0.773-0.4-0.276-0.534-0.542-0.243-0.979 0.269-0.405 0.092-0.656-0.255-0.99-1.011-0.972-2.289-1.817-2.108-3.524 0.066-0.612 0.176-1.173 0.78-1.504 0.352-0.194 0.438-0.467 0.29-0.876-0.128-0.353-0.349-0.775-0.025-1.12 0.185-0.199 0.383-1.321 0.775-0.093 0.035 0.109 0.11 0.161 0.229 0.134 0.226-0.050 0.831-1.148 0.692-1.321-0.329-0.405-0.109-0.581 0.223-0.811 1.908-1.324 5.168-1.413 7.133-0.179 0.172 0.108 0.378 0.215 0.318 0.44-0.053 0.203-0.286 0.162-0.452 0.164-0.768 0.008-1.536 0.014-2.305-0.001-0.337-0.007-0.648 0.016-0.86 0.317-0.098 0.139-0.406 0.168-0.331 0.333 0.059 0.134 0.323 0.199 0.507 0.251 0.263 0.074 0.344-0.078 0.356-0.325 0.006-0.141 0.094-0.367 0.22-0.325 0.192 0.065 0.36 0.239 0.507 0.397 0.161 0.176-0.062 0.238-0.142 0.339-0.299 0.38-0.672 0.538-1.168 0.494-0.61-0.054-1.234 0.595-1.133 1.117 0.040 0.211 0.037 0.364 0.358 0.273 0.627-0.177 1.279-0.61 1.862 0.182 0.172 0.234 0.377-0.102 0.467-0.293 0.209-0.446 0.538-0.461 0.916-0.268 0.183 0.092 0.472 0.125 0.421 0.429-0.053 0.322-0.329 0.23-0.537 0.24-0.194 0.009-0.449-0.068-0.516 0.167-0.069 0.241 0.201 0.221 0.344 0.288 0.186 0.086 0.251 0.265 0.218 0.431-0.041 0.215-0.272 0.228-0.425 0.194-0.712-0.159-1.571 0.281-2.124-0.587-0.185-0.29-0.62-0.105-0.913-0.019-0.769 0.224-1.24 0.784-1.464 1.53-0.18 0.6-0.015 1.121 0.497 1.52 0.245 0.19 0.503 0.286 0.816 0.301 1.084 0.053 1.43 0.413 1.453 1.507 0.008 0.376 0.026 0.74 0.201 1.084 0.257 0.509 0.783 0.657 1.124 0.23 0.491-0.615 1.294-1.040 1.264-2.012-0.010-0.33 0.314-0.526 0.576-0.729 0.255-0.198 0.466-0.447-0.080-0.606-0.657-0.19-0.61-0.759-0.641-1.307 0.362 0.568 0.737 1.005 1.392 0.405 0.205-0.187 0.489-0.388-0.037-0.547-0.209-0.064-0.346-0.251-0.245-0.463 0.12-0.246 0.29-0.017 0.441 0.013 0.73 0.14 1.288 0.469 1.459 1.261 0.023 0.107 0.117 0.266 0.197 0.279 0.148 0.023 0.142-0.164 0.198-0.265 0.106-0.196 0.211-0.458 0.473-0.374 0.289 0.094 0.157 0.371 0.129 0.582-0.336 2.545-1.685 4.381-4.014 5.388z"></path>
</symbol>
<symbol id="icon-private" viewBox="0 0 24 24">
<title>private</title>
<path d="M17.84 8.945v-2.415c0-1.549-0.572-2.871-1.718-3.978-1.146-1.108-2.514-1.661-4.117-1.661-1.605 0-2.971 0.552-4.117 1.661-1.148 1.106-1.721 2.428-1.721 3.978v2.415h-1.667v11.457h15.007v-11.457h-1.67zM12.381 16.451v1.945h-0.75v-1.945c-0.437-0.155-0.75-0.568-0.75-1.057 0-0.622 0.504-1.126 1.126-1.126s1.126 0.503 1.126 1.126c0 0.488-0.315 0.902-0.75 1.057zM15.341 8.945h-6.67v-2.415c0-0.894 0.323-1.649 0.976-2.278 0.651-0.63 1.432-0.944 2.358-0.944 0.924 0 1.706 0.314 2.358 0.944 0.651 0.629 0.978 1.384 0.978 2.278v2.415z"></path>
</symbol>
<symbol id="icon-unlock" viewBox="0 0 24 24">
<title>unlock</title>
<path d="M12.381 16.451v1.945h-0.75v-1.945c-0.437-0.155-0.75-0.568-0.75-1.057 0-0.622 0.504-1.126 1.126-1.126s1.126 0.503 1.126 1.126c0 0.488-0.315 0.902-0.75 1.057zM16.122 2.553c-1.146-1.108-2.514-1.661-4.117-1.661-1.605 0-2.971 0.552-4.117 1.661-1.148 1.106-1.721 2.428-1.721 3.978v2.415h-1.667v11.457h15.007v-11.457h-10.838v-2.415c0-0.894 0.323-1.649 0.976-2.278 0.651-0.63 1.432-0.944 2.358-0.944 0.924 0 1.706 0.314 2.358 0.944l1.758-1.7z"></path>
</symbol>
<symbol id="icon-protected" viewBox="0 0 24 24">
<title>protected</title>
<path d="M20.698 20.253c0 0-0.558 0.629-1.026 0.583-0.391-0.037-0.786-0.008-1.179-0.009-0.717-0.003-0.963-0.314-0.87-1.011 0.035-0.258 0.007-0.561-0.101-0.795-0.171-0.375-0.52-0.34-0.881-0.266-0.786 0.161-1.217-0.251-1.122-1.036 0.051-0.422-0.384-0.85-0.812-0.796-0.776 0.1-1.395-0.572-1.258-1.354 0.074-0.421 0.251-0.825-0.206-1.206-0.301-0.252-0.554-0.368-0.906-0.236-0.609 0.227-1.090 0.080-1.452-0.458-0.312-0.466-0.975-0.772-1.507-0.62-2.339 0.667-4.826-0.444-5.945-2.594-1.165-2.236-0.6-4.88 1.39-6.516 1.797-1.476 4.543-1.476 6.416 0.002 1.737 1.372 2.427 3.583 1.745 5.697-0.106 0.327 0.236 0.804 0.473 1.041 2.415 2.397 7.239 7.195 7.239 7.195l0.485 1.919-8.126-8.147-0.49 0.475 8.134 8.134zM5.527 7.836c0.633 0.643 1.716 0.642 2.341 0 0.606-0.624 0.601-1.67-0.012-2.294-0.622-0.633-1.638-0.649-2.281-0.035-0.669 0.638-0.69 1.677-0.048 2.329z"></path>
</symbol>
<symbol id="icon-bell" viewBox="0 0 24 24">
<title>bell</title>
<path d="M12.006 21.901c1.339 0 2.424-1.086 2.424-2.424h-4.847c0 1.338 1.086 2.424 2.424 2.424zM5.196 10.589c0 0-0.142 5.589-1.136 7.272 3.122 0 12.132 0 15.893 0-1.064-1.482-1.135-7.272-1.135-7.272 0-5.357-3.048-9.698-6.812-9.698-3.762 0-6.81 4.341-6.81 9.698z"></path>
</symbol>
<symbol id="icon-checklist" viewBox="0 0 24 24">
<title>checklist</title>
<path d="M17.634 3.95v15.758h-11.255v-15.758h-1.501v18.009h14.257v-18.009zM10.989 15.751l0.014 0.014 5.325-5.324-1.592-1.592-3.747 3.748-1.712-1.712-1.592 1.592 3.289 3.289zM15.383 2.335h-2.32c0.043-0.118 0.069-0.243 0.069-0.375 0-0.621-0.504-1.126-1.126-1.126s-1.126 0.504-1.126 1.126c0 0.132 0.028 0.257 0.069 0.375h-2.32v2.251h6.753v-2.251z"></path>
</symbol>
<symbol id="icon-user" viewBox="0 0 24 24">
<title>user</title>
<path d="M16.901 7.281c0 2.703-2.191 4.895-4.895 4.895s-4.895-2.191-4.895-4.895c0-2.703 2.191-4.895 4.895-4.895s4.895 2.191 4.895 4.895zM6.84 21.083h10.333c1.072 0 2.073 0.294 2.935 0.797v-3.789c0-2.681-1.728-4.955-4.129-5.781-1.002 1.048-2.411 1.702-3.975 1.702s-2.972-0.654-3.975-1.702c-2.4 0.827-4.129 3.1-4.129 5.781v3.789c0.864-0.503 1.865-0.797 2.938-0.797z"></path>
</symbol>
<symbol id="icon-calendar" viewBox="0 0 24 24">
<title>calendar</title>
<path d="M6.503 1.002h1.501v3.001h-1.501v-3.001zM16.008 1.002h1.501v3.001h-1.501v-3.001zM18.259 2.503v2.251h-3.001v-2.251h-6.504v2.251h-3.001v-2.251h-4.252v19.51h21.010v-19.51h-4.252zM9.504 11.476h5.003v3.752h-5.003v-3.752zM9.504 9.975v-3.752h5.003v3.752h-5.003zM3.001 6.223h5.002v3.752h-5.002v-3.752zM3.001 11.476h5.002v3.752h-5.002v-3.752zM3.001 20.48v-3.752h5.002v3.752h-5.002zM9.504 20.48v-3.752h5.003v3.752h-5.003zM21.010 20.48h-5.002v-3.752h5.002v3.752zM21.010 15.228h-5.002v-3.752h5.002v3.752zM21.010 9.975h-5.002v-3.752h5.002v3.752z"></path>
</symbol>
<symbol id="icon-search" viewBox="0 0 24 24">
<title>search</title>
<path d="M21.475 19.785l-5.451-5.451c2.168-2.937 1.93-7.090-0.73-9.75-2.93-2.929-7.681-2.929-10.612 0-2.93 2.931-2.93 7.682 0 10.612 2.659 2.66 6.813 2.897 9.75 0.73l5.451 5.451 1.592-1.593zM6.275 13.605c-2.051-2.052-2.051-5.377 0-7.428s5.377-2.051 7.428 0c2.052 2.051 2.052 5.376 0 7.428s-5.376 2.052-7.428 0z"></path>
</symbol>
<symbol id="icon-settings" viewBox="0 0 24 24">
<title>settings</title>
<path d="M9.38 15.4h5.253v2.251h-5.253v-2.251zM17.258 9.647h5.253v2.251h-5.253v-2.251zM1.501 6.771h5.253v2.251h-5.253v-2.251zM3.002 2.503h2.251v3.518h-2.251v-3.518zM3.002 9.772h2.251v10.74h-2.251v-10.74zM10.881 2.503h2.251v12.147h-2.251v-12.147zM10.881 18.402h2.251v2.111h-2.251v-2.111zM18.758 2.503h2.251v6.394h-2.251v-6.394zM18.758 12.649h2.251v7.863h-2.251v-7.863z"></path>
</symbol>
<symbol id="icon-play" viewBox="0 0 24 24">
<title>play</title>
<path d="M4.859 3.817l14.294 8.254-14.294 8.254z"></path>
</symbol>
<symbol id="icon-contract" viewBox="0 0 24 24">
<title>contract</title>
<path d="M20.034 4.96l-1.592-1.593-3.234 3.236-1.081-1.080v3.752h3.752l-1.080-1.081zM3.978 17.834l1.592 1.592 3.234-3.236 1.081 1.080v-3.752h-3.752l1.080 1.081zM13.507 11.396c0 0.829-0.672 1.501-1.501 1.501s-1.501-0.672-1.501-1.501c0-0.829 0.672-1.501 1.501-1.501s1.501 0.672 1.501 1.501z"></path>
</symbol>
<symbol id="icon-expand" viewBox="0 0 24 24">
<title>expand</title>
<path d="M13.727 8.083c0.333 0.173 0.652 0.381 0.931 0.661 0.28 0.278 0.488 0.598 0.661 0.93l3.298-3.298 1.080 1.080-0.001-3.752h-3.752l1.080 1.080-3.297 3.299zM10.285 14.71c-0.333-0.173-0.652-0.381-0.931-0.661-0.28-0.278-0.488-0.598-0.661-0.93l-3.298 3.298-1.080-1.081 0.001 3.752h3.751l-1.080-1.080 3.298-3.298zM13.507 11.396c0 0.829-0.672 1.501-1.501 1.501s-1.501-0.672-1.501-1.501c0-0.829 0.672-1.501 1.501-1.501s1.501 0.672 1.501 1.501z"></path>
</symbol>
<symbol id="icon-expand-double" viewBox="0 0 24 24">
<title>expand-double</title>
<path d="M13.726 8.082c0.334 0.173 0.652 0.381 0.932 0.661 0.28 0.278 0.488 0.598 0.661 0.93l3.298-3.298 1.080 1.080-0.002-3.752h-3.752l1.080 1.080-3.297 3.299zM10.284 14.711c-0.332-0.173-0.652-0.381-0.93-0.661-0.28-0.278-0.488-0.598-0.661-0.93l-3.298 3.297-1.080-1.080v3.75h3.752l-1.080-1.079 3.297-3.297zM13.507 11.396c0 0.829-0.672 1.501-1.501 1.501s-1.501-0.672-1.501-1.501c0-0.829 0.672-1.501 1.501-1.501s1.501 0.672 1.501 1.501zM8.692 9.673c0.173-0.332 0.381-0.652 0.661-0.93 0.278-0.28 0.598-0.488 0.93-0.661l-3.297-3.298 1.080-1.080h-3.752v3.752l1.080-1.080 3.298 3.297zM15.319 13.118c-0.173 0.334-0.381 0.652-0.661 0.932-0.278 0.28-0.598 0.488-0.93 0.661l3.298 3.298-1.080 1.079 3.752-0.002v-3.749l-1.080 1.080-3.299-3.299z"></path>
</symbol>
<symbol id="icon-contract-double" viewBox="0 0 24 24">
<title>contract-double</title>
<path d="M13.507 11.396c0 0.829-0.672 1.501-1.501 1.501s-1.501-0.672-1.501-1.501c0-0.829 0.672-1.501 1.501-1.501s1.501 0.672 1.501 1.501zM20.034 4.959l-1.592-1.593-3.234 3.236-1.081-1.080v3.752h3.752l-1.080-1.081zM3.978 17.835l1.592 1.59 3.234-3.234 1.081 1.080v-3.752h-3.752l1.080 1.081zM5.569 3.367l-1.593 1.592 3.236 3.234-1.080 1.081h3.752v-3.752l-1.081 1.080zM18.444 19.424l1.592-1.59-3.236-3.234 1.080-1.081h-3.752v3.752l1.081-1.080z"></path>
</symbol>
<symbol id="icon-compass" viewBox="0 0 24 24">
<title>compass</title>
<path d="M5.719 11.395c0-1.204 0.346-2.328 0.933-3.287l-5.902 3.409 6.161 3.558c-0.747-1.037-1.193-2.305-1.193-3.68zM12.034 14.203c-1.548 0-2.806-1.259-2.806-2.808s1.259-2.806 2.806-2.806 2.806 1.259 2.806 2.806c0 1.549-1.258 2.808-2.806 2.808zM12.034 17.712c-1.212 0-2.342-0.35-3.305-0.944l3.397 5.883 3.507-6.072c-1.023 0.712-2.262 1.133-3.6 1.133zM23.261 11.274l-6.060-3.498c0.72 1.026 1.147 2.273 1.147 3.62 0 1.184-0.332 2.289-0.901 3.236l5.814-3.358zM12.034 5.080c1.175 0 2.273 0.329 3.217 0.89l-3.366-5.83-3.551 6.147c1.042-0.756 2.318-1.207 3.7-1.207z"></path>
</symbol>
<symbol id="icon-tracker" viewBox="0 0 24 24">
<title>tracker</title>
<path d="M6.358 3.142v3.819c2.127 0.359 3.752 2.208 3.752 4.435 0 2.228-1.625 4.077-3.752 4.436v3.818l14.297-8.254-14.297-8.253zM7.859 11.395c0 1.243-1.008 2.251-2.251 2.251s-2.251-1.008-2.251-2.251c0-1.243 1.008-2.251 2.251-2.251s2.251 1.008 2.251 2.251z"></path>
</symbol>
<symbol id="icon-undo" viewBox="0 0 24 24">
<title>undo</title>
<path d="M11.607 8.439v-3.221l-10.219 5.899 10.219 5.899v-3.189c2.175-0.128 8.349-0.12 11.017 3.752-1.39-6.189-8.621-8.526-11.017-9.139z"></path>
</symbol>
<symbol id="icon-redo" viewBox="0 0 24 24">
<title>redo</title>
<path d="M12.404 8.439v-3.221l10.219 5.899-10.219 5.899v-3.189c-2.173-0.128-8.348-0.12-11.017 3.752 1.391-6.189 8.621-8.526 11.017-9.139z"></path>
</symbol>
<symbol id="icon-user-plus" viewBox="0 0 24 24">
<title>user-plus</title>
<path d="M13.899 6.544c0 2.703-2.191 4.895-4.895 4.895s-4.895-2.191-4.895-4.895c0-2.703 2.191-4.895 4.895-4.895s4.895 2.191 4.895 4.895zM23.111 15.231h-3.377v-3.377h-2.251v3.377h-3.377v2.251h3.377v3.377h2.251v-3.377h3.377zM15.982 18.983h-3.377v-5.253h3.377c-0.735-1.035-1.779-1.736-3.003-2.159-1.002 1.048-2.411 1.702-3.975 1.702s-2.972-0.654-3.975-1.702c-2.4 0.827-4.129 3.1-4.129 5.782v3.789c0.863-0.503 1.864-0.796 2.937-0.796h10.333c0.635 0 1.239 0.113 1.81 0.302v-1.664z"></path>
</symbol>
<symbol id="icon-user-minus" viewBox="0 0 24 24">
<title>user-minus</title>
<path d="M13.899 6.544c0 2.703-2.191 4.895-4.895 4.895s-4.895-2.191-4.895-4.895c0-2.703 2.191-4.895 4.895-4.895s4.895 2.191 4.895 4.895zM14.106 15.231h9.004v2.251h-9.004v-2.251zM15.982 18.983h-3.377v-5.253h3.377c-0.735-1.035-1.779-1.736-3.003-2.159-1.002 1.048-2.411 1.702-3.975 1.702s-2.972-0.654-3.975-1.702c-2.4 0.827-4.129 3.1-4.129 5.782v3.789c0.863-0.503 1.864-0.796 2.937-0.796h10.333c0.635 0 1.239 0.113 1.81 0.302v-1.664z"></path>
</symbol>
<symbol id="icon-team" viewBox="0 0 24 24">
<title>team</title>
<path d="M16.051 9.434c0 2.157-1.811 3.906-4.045 3.906s-4.045-1.749-4.045-3.906c0-2.157 1.811-3.906 4.045-3.906s4.045 1.749 4.045 3.906zM7.737 20.446h8.54c0.885 0 1.712 0.235 2.425 0.636v-3.023c0-2.14-1.427-3.954-3.412-4.612-0.828 0.835-1.991 1.358-3.284 1.358s-2.456-0.522-3.284-1.358c-1.985 0.66-3.412 2.473-3.412 4.612v3.023c0.714-0.402 1.541-0.636 2.427-0.636zM18.103 1.71c-1.744 0-3.158 1.365-3.158 3.049 0 0.034 0.009 0.065 0.011 0.098 1.061 0.652 1.876 1.647 2.291 2.823 0.274 0.075 0.558 0.128 0.858 0.128 1.744 0 3.158-1.364 3.158-3.049s-1.415-3.049-3.159-3.049zM9.057 4.863c0.002-0.035 0.011-0.068 0.011-0.104 0-1.685-1.414-3.049-3.158-3.049s-3.158 1.365-3.158 3.049c0 1.684 1.414 3.049 3.158 3.049 0.299 0 0.582-0.053 0.856-0.128 0.414-1.174 1.231-2.165 2.292-2.818zM20.667 7.892c-0.646 0.652-1.555 1.061-2.565 1.061-0.2 0-0.39-0.028-0.579-0.059 0.017 0.177 0.028 0.358 0.028 0.54 0 1.093-0.341 2.105-0.916 2.955 0.523 0.261 0.992 0.594 1.416 0.97h3.386c0.692 0 1.336 0.183 1.895 0.497v-2.361c0-1.672-1.116-3.088-2.665-3.603zM6.46 9.434c0-0.182 0.009-0.362 0.028-0.54-0.191 0.031-0.381 0.059-0.579 0.059-1.010 0-1.919-0.409-2.565-1.061-1.549 0.516-2.665 1.931-2.665 3.603v2.361c0.557-0.314 1.204-0.497 1.895-0.497h3.384c0.425-0.377 0.894-0.709 1.416-0.97-0.574-0.85-0.915-1.862-0.915-2.954z"></path>
</symbol>
<symbol id="icon-user-cross" viewBox="0 0 24 24">
<title>user-cross</title>
<path d="M14.264 6.545c0 2.703-2.191 4.895-4.895 4.895s-4.895-2.191-4.895-4.895c0-2.703 2.191-4.895 4.895-4.895s4.895 2.191 4.895 4.895zM12.664 19.552l2.388-2.389-2.388-2.388 2.331-2.331c-0.498-0.369-1.054-0.666-1.652-0.872-1.002 1.048-2.411 1.703-3.975 1.703s-2.972-0.655-3.975-1.703c-2.4 0.827-4.129 3.1-4.129 5.782v3.79c0.863-0.504 1.864-0.798 2.937-0.798h9.255l-0.794-0.794zM22.746 19.552l-2.388-2.388 2.388-2.388-1.592-1.592-2.387 2.387-2.388-2.387-1.593 1.592 2.389 2.388-2.389 2.388 1.593 1.592 2.388-2.388 2.387 2.388z"></path>
</symbol>
<symbol id="icon-user-disable" viewBox="0 0 24 24">
<title>user-disable</title>
<path d="M15.821 6.545c0 2.703-2.191 4.895-4.895 4.895s-4.895-2.191-4.895-4.895c0-2.703 2.191-4.895 4.895-4.895s4.895 2.191 4.895 4.895zM16.574 12.462c-0.504-0.378-1.067-0.68-1.673-0.89-1.002 1.048-2.411 1.703-3.975 1.703s-2.972-0.655-3.975-1.703c-2.4 0.827-4.129 3.1-4.129 5.782v3.79c0.863-0.504 1.864-0.798 2.937-0.798h2.654l8.16-7.884zM16.116 20.348c1.063 0.005 2.056 0.295 2.914 0.796v-3.737l-2.914 2.941zM18.097 13.077l3.092 0.018-7.974 8.048h-3.466z"></path>
</symbol>
<symbol id="icon-user-key" viewBox="0 0 24 24">
<title>user-key</title>
<path d="M15.775 6.545c0 2.703-2.191 4.895-4.895 4.895s-4.895-2.191-4.895-4.895c0-2.703 2.191-4.895 4.895-4.895s4.895 2.191 4.895 4.895zM18.478 18.594c-0.206 0-0.413-0.015-0.618-0.046-0.248 0.236-0.541 0.404-0.859 0.495-0.080 0.28-0.22 0.544-0.41 0.771-0.194 0.23-0.432 0.404-0.695 0.532h0.152c1.072 0 2.073 0.293 2.935 0.798v-2.585c-0.167 0.020-0.333 0.035-0.505 0.035zM10.357 18.791l3.873-3.85c-0.176-1.171 0.145-2.339 0.875-3.26-0.085-0.034-0.164-0.079-0.251-0.11-1.002 1.048-2.411 1.703-3.975 1.703s-2.972-0.655-3.975-1.703c-2.4 0.827-4.129 3.1-4.129 5.782v3.79c0.863-0.504 1.864-0.798 2.937-0.798h4.25l0.393-1.555zM16.045 16.495l-0.261-0.254-4.332 4.342 0.258-1.021c0 0 2.572-2.557 3.859-3.835 0.128-0.126 0.309-0.381 0.254-0.555-0.363-1.127 0.005-2.305 0.93-3.037 0.998-0.787 2.462-0.789 3.421-0.001 1.060 0.872 1.361 2.282 0.74 3.473-0.597 1.147-1.923 1.739-3.17 1.384-0.283-0.080-0.636 0.082-0.803 0.331-0.192 0.287-0.45 0.365-0.774 0.243-0.188-0.069-0.323-0.008-0.484 0.126-0.243 0.203-0.149 0.419-0.11 0.643 0.074 0.418-0.257 0.775-0.67 0.723-0.229-0.029-0.46 0.2-0.434 0.423 0.051 0.419-0.179 0.639-0.598 0.552-0.192-0.040-0.378-0.059-0.469 0.142-0.057 0.125-0.074 0.286-0.054 0.423 0.050 0.371-0.080 0.538-0.463 0.538-0.211 0.002-0.421-0.014-0.629 0.006-0.251 0.023-0.548-0.312-0.548-0.312l4.336-4.334zM19.771 12.97c-0.343-0.329-0.884-0.32-1.216 0.019-0.326 0.332-0.329 0.89-0.006 1.222 0.334 0.343 0.912 0.343 1.249 0 0.341-0.347 0.331-0.901-0.026-1.241z"></path>
</symbol>
<symbol id="icon-wand" viewBox="0 0 24 24">
<title>wand</title>
<path d="M14.95 9.24l0.546-4.792-14.254 14.255 2.122 2.122zM19.062-0.61l1.234 2.2 2.472 0.492-1.712 1.854 0.296 2.503-2.291-1.053-2.29 1.053 0.296-2.503-1.71-1.854 2.471-0.492zM18.136 10.381l0.807 1.44 1.616 0.323-1.12 1.213 0.194 1.637-1.498-0.688-1.499 0.688 0.194-1.638-1.12-1.213 1.618-0.323zM11.686 3.932l-1.439-0.807-0.323-1.619-1.213 1.12-1.638-0.194 0.689 1.498-0.689 1.498 1.638-0.193 1.214 1.119 0.32-1.617z"></path>
</symbol>
<symbol id="icon-node" viewBox="0 0 24 24">
<title>node</title>
<path d="M14.606 5.55c-1.189 0-2.294 0.353-3.221 0.954l-3.203-3.203c0.059-0.201 0.1-0.408 0.1-0.628 0-1.243-1.008-2.251-2.251-2.251-1.244 0-2.251 1.008-2.251 2.251s1.007 2.251 2.251 2.251c0.18 0 0.355-0.027 0.523-0.068l3.205 3.205c-0.687 0.969-1.095 2.15-1.095 3.428 0 1.146 0.331 2.213 0.892 3.12l-3.323 3.324c-0.167-0.040-0.338-0.066-0.517-0.066-1.244 0-2.251 1.008-2.251 2.251s1.007 2.251 2.251 2.251c1.243 0 2.251-1.008 2.251-2.251 0-0.221-0.043-0.431-0.103-0.634l3.218-3.219c0.986 0.729 2.202 1.164 3.521 1.164 3.28 0 5.94-2.659 5.94-5.94 0.002-3.279-2.659-5.939-5.938-5.939z"></path>
</symbol>
<symbol id="icon-process" viewBox="0 0 24 24">
<title>process</title>
<path d="M19.477 8.302c-0.103-0.25-0.218-0.49-0.343-0.723l1.216-2.56c-0.572-0.75-1.234-1.409-1.965-1.967l-2.562 1.217c-0.472-0.252-0.966-0.456-1.479-0.612l-0.948-2.673c-0.913-0.123-1.847-0.124-2.782 0.001l-0.95 2.671c-0.254 0.078-0.504 0.166-0.755 0.268-0.248 0.104-0.488 0.22-0.723 0.344l-2.56-1.216c-0.749 0.573-1.408 1.232-1.967 1.965l1.216 2.562c-0.251 0.471-0.455 0.966-0.61 1.478l-2.674 0.95c-0.123 0.914-0.123 1.846 0.003 2.781l2.669 0.95c0.077 0.254 0.167 0.505 0.269 0.755 0.104 0.249 0.218 0.49 0.343 0.723l-1.216 2.56c0.573 0.75 1.234 1.409 1.965 1.967l2.562-1.219c0.472 0.252 0.966 0.457 1.477 0.612l0.951 2.672c0.913 0.123 1.845 0.123 2.782-0.002l0.948-2.671c0.255-0.078 0.506-0.166 0.756-0.269 0.249-0.104 0.489-0.219 0.723-0.344l2.56 1.216c0.749-0.572 1.41-1.233 1.967-1.964l-1.217-2.562c0.251-0.47 0.455-0.966 0.61-1.477l2.674-0.95c0.125-0.913 0.125-1.847-0.002-2.782l-2.669-0.949c-0.078-0.254-0.167-0.505-0.27-0.754zM14.606 17.673c-3.467 1.435-7.441-0.21-8.877-3.677-1.435-3.466 0.209-7.441 3.677-8.877 3.466-1.435 7.439 0.21 8.874 3.678 1.436 3.466-0.208 7.44-3.674 8.876zM13.317 8.687c-0.531 0-1.021 0.157-1.435 0.425l-1.426-1.426c0.026-0.089 0.046-0.182 0.046-0.28 0-0.553-0.449-1.002-1.002-1.002s-1.002 0.449-1.002 1.002c0 0.555 0.449 1.002 1.002 1.002 0.080 0 0.158-0.012 0.233-0.030l1.426 1.427c-0.305 0.431-0.486 0.955-0.486 1.525 0 0.51 0.148 0.985 0.397 1.39l-1.48 1.48c-0.074-0.018-0.149-0.030-0.229-0.030-0.552 0-1.002 0.449-1.002 1.002s0.45 1.002 1.002 1.002c0.554 0 1.001-0.449 1.001-1.002 0-0.098-0.019-0.192-0.046-0.282l1.433-1.432c0.44 0.324 0.979 0.517 1.568 0.517 1.459 0 2.644-1.184 2.644-2.644s-1.184-2.644-2.644-2.644z"></path>
</symbol>
<symbol id="icon-node-plus" viewBox="0 0 24 24">
<title>node-plus</title>
<path d="M16.107 5.456c-1.189 0-2.294 0.353-3.221 0.954l-3.203-3.203c0.059-0.201 0.1-0.408 0.1-0.628 0-1.243-1.008-2.251-2.251-2.251-1.244 0-2.251 1.008-2.251 2.251s1.007 2.251 2.251 2.251c0.18 0 0.355-0.027 0.523-0.068l3.205 3.205c-0.687 0.969-1.095 2.15-1.095 3.428 0 1.146 0.331 2.213 0.892 3.12l-3.323 3.324c-0.166-0.039-0.338-0.065-0.516-0.065-1.244 0-2.251 1.008-2.251 2.251s1.007 2.251 2.251 2.251c1.243 0 2.251-1.008 2.251-2.251 0-0.221-0.043-0.431-0.103-0.634l3.218-3.219c0.986 0.729 2.202 1.164 3.521 1.164 3.28 0 5.94-2.659 5.94-5.94 0.001-3.28-2.659-5.94-5.939-5.94zM19.483 12.522h-2.251v2.251h-2.251v-2.251h-2.251v-2.251h2.251v-2.251h2.251v2.251h2.251v2.251z"></path>
</symbol>
<symbol id="icon-node-cross" viewBox="0 0 24 24">
<title>node-cross</title>
<path d="M16.107 5.55c-1.189 0-2.294 0.353-3.221 0.954l-3.203-3.203c0.059-0.201 0.1-0.408 0.1-0.628 0-1.243-1.008-2.251-2.251-2.251-1.244 0-2.251 1.008-2.251 2.251s1.007 2.251 2.251 2.251c0.18 0 0.355-0.027 0.523-0.068l3.205 3.205c-0.687 0.969-1.095 2.15-1.095 3.428 0 1.146 0.331 2.213 0.892 3.12l-3.323 3.324c-0.167-0.040-0.338-0.066-0.517-0.066-1.244 0-2.251 1.008-2.251 2.251s1.007 2.251 2.251 2.251c1.243 0 2.251-1.008 2.251-2.251 0-0.221-0.043-0.431-0.103-0.634l3.218-3.219c0.986 0.729 2.202 1.164 3.521 1.164 3.28 0 5.94-2.659 5.94-5.94 0.001-3.279-2.659-5.939-5.938-5.939zM19.29 13.082l-1.592 1.592-1.592-1.592-1.592 1.592-1.593-1.592 1.593-1.592-1.593-1.592 1.593-1.592 1.592 1.592 1.592-1.592 1.592 1.592-1.592 1.592 1.592 1.592z"></path>
</symbol>
<symbol id="icon-node-minus" viewBox="0 0 24 24">
<title>node-minus</title>
<path d="M16.107 5.55c-1.189 0-2.294 0.353-3.221 0.954l-3.203-3.203c0.059-0.201 0.1-0.408 0.1-0.628 0-1.243-1.008-2.251-2.251-2.251-1.244 0-2.251 1.008-2.251 2.251s1.007 2.251 2.251 2.251c0.18 0 0.355-0.027 0.523-0.068l3.205 3.205c-0.687 0.969-1.095 2.15-1.095 3.428 0 1.146 0.331 2.213 0.892 3.12l-3.323 3.324c-0.167-0.040-0.338-0.066-0.517-0.066-1.244 0-2.251 1.008-2.251 2.251s1.007 2.251 2.251 2.251c1.243 0 2.251-1.008 2.251-2.251 0-0.221-0.043-0.431-0.103-0.634l3.218-3.219c0.986 0.729 2.202 1.164 3.521 1.164 3.28 0 5.94-2.659 5.94-5.94 0.001-3.279-2.659-5.939-5.938-5.939zM19.483 12.616h-6.753v-2.251h6.753v2.251z"></path>
</symbol>
<symbol id="icon-task" viewBox="0 0 24 24">
<title>task</title>
<path d="M17.288 5.214c0 1.297-1.052 2.349-2.349 2.349s-2.349-1.052-2.349-2.349c0-1.297 1.052-2.349 2.349-2.349s2.349 1.052 2.349 2.349zM15.856 8.528c-4.139-0.13-3.363-1.762-4.183-1.87 0 0-3.392-1.971-4.146-1.697-0.331 0.12-4.142 4.954-4.142 4.954l1.276 0.596c0 0 2.959-3.462 3.547-3.676 0.317-0.115 1.141 0.671 1.537 1.072-1.808 2.048-3.926 5.715-3.261 7.54 0.441 1.216 3.023 1.604 4.707 2.167 0.669 0.273 1.979 0.825 2.033 0.976 0.255 0.699-1.256 2.697-1.256 2.697l1.276 0.595c0 0 2.088-3.392 1.854-3.973-0.157-0.389-2.314-2.229-3.516-2.826-0.76-4.005 3.109-1.526 4.273-6.555zM21.421 7.769c0 0-1.702 2.39-2.289 2.605-0.375 0.136-1.427-0.927-2.371-1.464-0.157 0.56-0.486 1.505-0.683 1.945 1.171 0.658 3.078 1.631 3.736 1.392 0.331-0.122 2.886-3.882 2.886-3.882l-1.279-0.595zM5.962 16.787c-0.363 0.992-0.687 1.868-1.033 1.994-0.589 0.215-3.020-1.808-3.020-1.808l-0.597 1.276c0 0 3.226 2.796 4.299 2.405 0.588-0.214 2.124-1.521 2.805-2.768-0.693-0.258-2.021-0.655-2.454-1.099z"></path>
</symbol>
<symbol id="icon-exclusive" viewBox="0 0 24 24">
<title>exclusive</title>
<path d="M9.392 9.547l1.061-1.061-1.327-1.326 1.327-1.327-1.061-1.061-1.327 1.326-1.327-1.326-1.061 1.061 1.327 1.327-1.327 1.326 1.061 1.061 1.327-1.326zM16.167 2.392l-2.166 3.752h1.067v6.96c0 1.241-1.010 2.251-2.251 2.251h-1.376c-1.241 0-2.251-1.010-2.251-2.251v-1.832h-2.251v1.832c0 2.339 1.784 4.261 4.065 4.48v2.817h2.251v-2.817c2.281-0.22 4.065-2.142 4.065-4.48v-6.96h1.014l-2.166-3.752z"></path>
</symbol>
<symbol id="icon-parallel" viewBox="0 0 24 24">
<title>parallel</title>
<path d="M18.226 6.144l-2.166-3.752-2.166 3.752h1.067v6.96c0 1.241-1.010 2.251-2.251 2.251h-1.376c-1.241 0-2.251-1.010-2.251-2.251v-6.96h1.034l-2.166-3.752-2.165 3.752h1.047v6.96c0 2.339 1.784 4.261 4.065 4.48v2.817h2.251v-2.817c2.281-0.22 4.065-2.142 4.065-4.48v-6.96h1.014z"></path>
</symbol>
<symbol id="icon-link" viewBox="0 0 24 24">
<title>link</title>
<path d="M4.222 16.512c0 0.289 0.1 0.534 0.311 0.744l1.634 1.622c0.211 0.189 0.455 0.289 0.756 0.289 0.299 0 0.555-0.1 0.756-0.3l3.138-3.148c0.211-0.211 0.311-0.455 0.311-0.756 0-0.31-0.123-0.578-0.367-0.81-0.022 0.022-0.089 0.089-0.2 0.211l-0.245 0.245c-0.044 0.034-0.11 0.089-0.211 0.167-0.189 0.133-0.366 0.178-0.589 0.176-0.589 0.001-1.067-0.476-1.067-1.066-0.045-0.299 0.201-0.645 0.356-0.8 0.034-0.044 0.111-0.122 0.234-0.235l0.211-0.21c-0.222-0.234-0.488-0.356-0.8-0.356-0.3 0.001-0.545 0.101-0.756 0.311l-3.161 3.16c-0.212 0.212-0.312 0.456-0.312 0.756v0zM12.884 7.828c0 0.311 0.123 0.579 0.366 0.811l0.211-0.211c0.113-0.122 0.191-0.2 0.235-0.233 0.044-0.045 0.111-0.1 0.211-0.167 0.19-0.144 0.366-0.189 0.589-0.189 0.589-0.001 1.067 0.478 1.067 1.067 0.044 0.299-0.201 0.644-0.344 0.8l-0.245 0.244c-0.122 0.111-0.189 0.179-0.211 0.201 0.222 0.233 0.489 0.344 0.8 0.344 0.299 0 0.555-0.1 0.756-0.299l3.16-3.16c0.212-0.211 0.311-0.455 0.311-0.756 0-0.289-0.1-0.534-0.311-0.744l-1.634-1.622c-0.212-0.2-0.467-0.3-0.756-0.3-0.3 0-0.545 0.101-0.756 0.311l-3.139 3.149c-0.209 0.212-0.31 0.456-0.31 0.756v0zM2.088 16.512c0-0.89 0.311-1.646 0.933-2.267l3.16-3.16c0.621-0.623 1.378-0.933 2.267-0.934 0.9 0.001 1.678 0.323 2.312 0.978l0.978-0.978c-0.656-0.633-0.979-1.411-0.978-2.322-0.001-0.89 0.311-1.646 0.922-2.257l3.138-3.149c0.611-0.633 1.367-0.945 2.267-0.945 0.89 0 1.645 0.311 2.256 0.922l1.634 1.624c0.634 0.611 0.945 1.366 0.945 2.256s-0.311 1.646-0.933 2.268l-3.16 3.16c-0.623 0.621-1.378 0.933-2.267 0.933-0.9 0-1.679-0.324-2.313-0.979l-0.978 0.979c0.655 0.633 0.978 1.411 0.978 2.322 0 0.89-0.311 1.646-0.922 2.257l-3.138 3.149c-0.611 0.633-1.367 0.944-2.267 0.944-0.89 0-1.646-0.311-2.256-0.922l-1.635-1.624c-0.633-0.611-0.943-1.366-0.943-2.256z"></path>
</symbol>
<symbol id="icon-unlink" viewBox="0 0 24 24">
<title>unlink</title>
<path d="M4.25 8.157h3.377v1h-3.377v-1zM5.535 5.064l0.709-0.705 2.382 2.394-0.709 0.705-2.382-2.394zM9.341 3.090l0.999 0.004-0.015 3.377-0.999-0.004 0.015-3.377zM16.883 13.824h3.377v0.999h-3.377v-0.999zM18.974 17.917l-0.709 0.705-2.38-2.395 0.709-0.705 2.38 2.395zM15.169 19.892l-1.001-0.004 0.015-3.377 1.001 0.004-0.015 3.377zM10.474 14.628c0.182 0.209 0.278 0.443 0.278 0.711 0 0.3-0.101 0.546-0.312 0.756l-3.138 3.148c-0.2 0.201-0.455 0.3-0.755 0.3s-0.546-0.1-0.756-0.289l-1.634-1.622c-0.211-0.211-0.311-0.455-0.311-0.744 0-0.3 0.1-0.546 0.311-0.756l3.161-3.159c0.152-0.151 0.769-0.181 1.19-0.101l1.602-1.603c-0.58-0.486-1.259-0.742-2.036-0.742-0.89 0.001-1.646 0.311-2.267 0.934l-3.16 3.16c-0.623 0.621-0.933 1.378-0.933 2.267s0.311 1.644 0.944 2.256l1.634 1.624c0.611 0.611 1.367 0.922 2.257 0.922 0.9 0 1.656-0.311 2.267-0.944l3.138-3.149c0.611-0.611 0.922-1.367 0.922-2.257 0-0.864-0.3-1.606-0.891-2.22l-1.51 1.51zM21.353 3.649l-1.634-1.624c-0.611-0.61-1.366-0.922-2.256-0.922-0.901 0-1.656 0.311-2.267 0.945l-3.138 3.149c-0.611 0.611-0.923 1.367-0.923 2.256 0 0.786 0.257 1.467 0.743 2.048l1.524-1.524c-0.092-0.161-0.143-0.332-0.143-0.524 0-0.299 0.1-0.545 0.311-0.756l3.138-3.149c0.211-0.211 0.455-0.311 0.756-0.311 0.289 0 0.544 0.101 0.756 0.3l1.633 1.622c0.212 0.211 0.312 0.455 0.312 0.744 0 0.3-0.1 0.546-0.312 0.756l-3.161 3.16c-0.2 0.2-0.455 0.3-0.755 0.3-0.266 0-0.498-0.086-0.701-0.257l-1.51 1.511c0.614 0.59 1.354 0.891 2.21 0.891 0.888 0 1.644-0.311 2.267-0.933l3.16-3.16c0.623-0.622 0.933-1.378 0.933-2.268 0.002-0.89-0.309-1.646-0.944-2.256z"></path>
</symbol>
<symbol id="icon-rules" viewBox="0 0 24 24">
<title>rules</title>
<path d="M9.004 2.392h12.006v3.001h-12.006v-3.001zM9.004 9.895h6.003v3.001h-6.003v-3.001zM9.004 17.399h9.004v3.001h-9.004v-3.001zM6.771 20.025l-1.126-1.126 1.126-1.126-0.75-0.75-1.126 1.126-1.126-1.126-0.75 0.75 1.126 1.126-1.126 1.126 0.75 0.75 1.126-1.126 1.126 1.126zM6.822 2.017l-2.202 2.202-1.204-1.205-0.778 0.778 1.976 1.977 0.008-0.007 0.006 0.007 2.974-2.972zM6.822 9.52l-2.202 2.202-1.204-1.205-0.778 0.778 1.976 1.977 0.008-0.008 0.006 0.008 2.974-2.972z"></path>
</symbol>
<symbol id="icon-sandbox" viewBox="0 0 24 24">
<title>sandbox</title>
<path d="M3.001 16.65h18.009v5.251h-18.009v-5.251zM7.912 12.146h1.655v-2.251h-2.814l-3.752 5.254h2.83zM14.82 12.146h1.28l1.971 3.003h2.939l-3.752-5.254h-2.439zM11.016 6.974h0.052v6.592h-0.75c-0.828 0-1.501 0.672-1.501 1.501l0.026 0.082h6.702l0.026-0.082c0-0.829-0.672-1.501-1.501-1.501h-0.75v-6.592h0.052c0.828 0 1.501-0.672 1.501-1.501v-1.595c0-0.828-0.672-1.5-1.501-1.5h-2.355c-0.828 0-1.501 0.672-1.501 1.5v1.595c0.001 0.828 0.673 1.501 1.501 1.501zM11.016 3.503h2.355v2.346h-2.355v-2.346z"></path>
</symbol>
<symbol id="icon-design" viewBox="0 0 24 24">
<title>design</title>
<path d="M9.81 2.756v17.577h11.575l-11.575-17.577zM12.061 10.268l5.145 7.816h-5.145v-7.816zM15.68 7.578h3.455v5.247l1.501 2.279v-9.026h-5.943zM7.559 17.334h-3.432v-9.756h3.432v-1.501h-4.933v12.758h4.933z"></path>
</symbol>
<symbol id="icon-code" viewBox="0 0 24 24">
<title>code</title>
<path d="M14.279 14.441v3.092l6.732-6.732-0.020-0.020 0.020-0.021-6.732-6.731v3.092l3.569 3.66zM9.733 7.033v-3.001l-6.732 6.731 0.020 0.021-0.020 0.020 6.732 6.732v-3.092l-3.569-3.66z"></path>
</symbol>
<symbol id="icon-token" viewBox="0 0 24 24">
<title>token</title>
<path d="M12.006 6.894c-2.483 0-4.502 2.019-4.502 4.502s2.019 4.502 4.502 4.502 4.502-2.019 4.502-4.502-2.019-4.502-4.502-4.502zM12.006 2.392c-4.973 0-9.004 4.032-9.004 9.004s4.031 9.004 9.004 9.004 9.004-4.032 9.004-9.004-4.031-9.004-9.004-9.004zM12.006 18.149c-3.724 0-6.753-3.029-6.753-6.753s3.029-6.753 6.753-6.753 6.753 3.029 6.753 6.753-3.029 6.753-6.753 6.753z"></path>
</symbol>
<symbol id="icon-lane" viewBox="0 0 24 24">
<title>lane</title>
<path d="M10.88 18.149h2.251v2.251h7.879l-3.001-18.009h-12.006l-3.001 18.009h7.879v-2.251zM10.88 4.643h2.251v4.502h-2.251v-4.502zM10.88 11.396h2.251v4.502h-2.251v-4.502z"></path>
</symbol>
<symbol id="icon-role" viewBox="0 0 24 24">
<title>role</title>
<path d="M6.003 11.396c0-1.642 0.663-3.131 1.736-4.215l-3.699-2.136c-0.262-0.151-0.554-0.227-0.846-0.227s-0.584 0.076-0.846 0.227c-0.524 0.302-0.846 0.861-0.846 1.465v9.77c0 0.605 0.323 1.163 0.846 1.465 0.262 0.151 0.554 0.227 0.846 0.227s0.585-0.076 0.846-0.227l3.699-2.136c-1.072-1.085-1.735-2.573-1.735-4.215zM21.665 5.046c-0.262-0.151-0.554-0.227-0.846-0.227s-0.585 0.076-0.846 0.227l-3.699 2.136c1.072 1.084 1.736 2.574 1.736 4.215s-0.663 3.13-1.735 4.215l3.699 2.136c0.262 0.151 0.554 0.227 0.846 0.227s0.584-0.076 0.846-0.227c0.524-0.302 0.846-0.861 0.846-1.465v-9.77c0-0.604-0.323-1.163-0.846-1.465zM12.006 7.644c-2.072 0-3.752 1.679-3.752 3.752s1.68 3.752 3.752 3.752 3.752-1.679 3.752-3.752-1.68-3.752-3.752-3.752z"></path>
</symbol>
<symbol id="icon-launch" viewBox="0 0 24 24">
<title>launch</title>
<path d="M8.226 16.587v-11.761c-1.504 9.292-3.924 6.476-5.881 14.28 0.084-0.008 19.205-0.025 19.322 0-1.958-7.804-4.378-4.988-5.881-14.28v11.761h-7.561zM9.905 14.922h4.201c0 0 0-7.6 0-10.442-0.271-1.558-1.279-3.771-2.102-3.771s-1.829 2.213-2.1 3.771c0 2.842 0 10.442 0 10.442zM8.645 22.083h-4.2l0.839-1.681h2.52zM19.566 22.083h-4.201l0.841-1.681h2.519z"></path>
</symbol>
<symbol id="icon-simulate" viewBox="0 0 24 24">
<title>simulate</title>
<path d="M8.685 17.667v-7.764c-0.993 6.134-2.59 4.276-3.882 9.428 0.056-0.005 12.678-0.016 12.756 0-1.293-5.151-2.89-3.294-3.882-9.428v7.765h-4.991zM9.794 16.568h2.773c0 0 0-5.018 0-6.894-0.179-1.028-0.844-2.488-1.387-2.488s-1.208 1.46-1.387 2.488c0.001 1.877 0.001 6.894 0.001 6.894zM8.962 21.296h-2.773l0.554-1.109h1.664zM16.172 21.296h-2.774l0.556-1.109h1.664zM19.952 8.976c-0.303-1.773-1.132-3.473-2.501-4.842-3.517-3.517-9.217-3.517-12.734 0-2.187 2.187-3.011 5.217-2.479 8.043h2.31c-0.571-2.235 0.011-4.703 1.761-6.452 2.637-2.638 6.913-2.638 9.551 0 0.927 0.927 1.522 2.061 1.798 3.251h-1.73l3 5.199 3.003-5.199h-1.979z"></path>
</symbol>
<symbol id="icon-paper-plane" viewBox="0 0 24 24">
<title>paper-plane</title>
<path d="M2.251 11.345l4.024 1.856 9.755-5.934-7.424 6.992 5.568 2.505 7.587-14.658zM8.603 15.686v5l1.997-4.102z"></path>
</symbol>
<symbol id="icon-mobile" viewBox="0 0 24 24">
<title>mobile</title>
<path d="M16.688 1.643h-9.366c-0.418 0-0.756 0.335-0.756 0.75v18.006c0 0.415 0.338 0.75 0.756 0.75h9.366c0.419 0 0.758-0.335 0.758-0.75v-18.006c0-0.415-0.338-0.75-0.758-0.75zM12.006 20.741c-0.62 0-1.126-0.503-1.126-1.124 0-0.623 0.506-1.126 1.126-1.126 0.621 0 1.126 0.503 1.126 1.126 0 0.621-0.504 1.124-1.126 1.124zM15.945 18.111h-7.879v-15.007h7.879v15.007z"></path>
</symbol>
<symbol id="icon-tablet" viewBox="0 0 24 24">
<title>tablet</title>
<path d="M20.26 4.455h-16.508c-0.415 0-0.75 0.335-0.75 0.75v12.381c0 0.415 0.335 0.75 0.75 0.75h16.508c0.415 0 0.75-0.335 0.75-0.75v-12.381c0-0.415-0.335-0.75-0.75-0.75zM12.006 17.962c-0.413 0-0.75-0.336-0.75-0.75s0.337-0.75 0.75-0.75c0.415 0 0.75 0.335 0.75 0.75s-0.335 0.75-0.75 0.75zM19.542 16.023h-15.101v-10.067h15.101v10.067z"></path>
</symbol>
<symbol id="icon-laptop" viewBox="0 0 24 24">
<title>laptop</title>
<path d="M21.010 15.898v-10.505c0-0.415-0.335-0.75-0.75-0.75h-16.508c-0.415 0-0.75 0.335-0.75 0.75v10.505h-1.501c0.066 0.838 0.737 2.251 1.567 2.251h17.878c0.828 0 1.501-1.413 1.565-2.251h-1.501zM19.51 15.898h-15.007v-9.567h15.007v9.567z"></path>
</symbol>
<symbol id="icon-tv" viewBox="0 0 24 24">
<title>tv</title>
<path d="M21.761 4.262h-19.51c-0.415 0-0.75 0.335-0.75 0.75v12.006c0 0.415 0.335 0.75 0.75 0.75h19.51c0.415 0 0.75-0.335 0.75-0.75v-12.006c0-0.415-0.335-0.75-0.75-0.75zM21.010 16.080h-18.009v-10.13h18.009v10.13zM6.003 18.831h12.006v2.251h-12.006v-2.251z"></path>
</symbol>
<symbol id="icon-download" viewBox="0 0 24 24">
<title>download</title>
<path d="M18.548 10.427c-0.091-1.457-1.298-2.613-2.779-2.613-0.418 0-0.812 0.095-1.168 0.26-0.824-1.706-2.571-2.883-4.593-2.883-2.808 0-5.085 2.269-5.1 5.074-1.31 0.615-2.219 1.946-2.219 3.49 0 2.056 1.61 3.736 3.638 3.848h11.745c1.828-0.197 3.249-1.758 3.249-3.638 0-1.711-1.181-3.147-2.773-3.538zM12.026 16.183l-0.020-0.020-0.020 0.020-4.48-4.48 1.592-1.592 2.909 2.909 2.909-2.909 1.592 1.592-4.48 4.48z"></path>
</symbol>
<symbol id="icon-upload" viewBox="0 0 24 24">
<title>upload</title>
<path d="M18.548 10.427c-0.091-1.457-1.298-2.613-2.779-2.613-0.418 0-0.812 0.095-1.168 0.26-0.824-1.706-2.571-2.883-4.593-2.883-2.808 0-5.085 2.269-5.1 5.074-1.31 0.615-2.219 1.946-2.219 3.49 0 2.056 1.61 3.736 3.638 3.848h11.745c1.828-0.197 3.249-1.758 3.249-3.638 0-1.711-1.181-3.147-2.773-3.538zM14.915 15.308l-2.909-2.909-2.909 2.909-1.592-1.592 4.48-4.48 0.020 0.020 0.020-0.020 4.48 4.48-1.592 1.592z"></path>
</symbol>
<symbol id="icon-object" viewBox="0 0 24 24">
<title>object</title>
<path d="M10.88 12.862l-7.322-4.227v8.403l7.322 4.227zM12.009 10.914l7.366-4.253-7.369-4.254-7.366 4.253zM13.131 12.865v8.402l7.322-4.228v-8.402z"></path>
</symbol>
<symbol id="icon-object-plus" viewBox="0 0 24 24">
<title>object-plus</title>
<path d="M22.705 5.544h-3.377v-3.377h-2.251v3.377h-3.377v2.251h3.377v3.377h2.251v-3.377h3.377zM8.628 12.422l-7.321-4.227v8.403l7.321 4.227zM15.576 12.673v-2.959l-4.697 2.711v8.402l7.323-4.228v-3.926zM12.199 3.408l-2.445-1.441-7.366 4.253 7.369 4.254 2.442-1.41z"></path>
</symbol>
<symbol id="icon-game" viewBox="0 0 24 24">
<title>game</title>
<path d="M21.533 9.465c-1.4-3.978-3.533-5.206-5.379-4.502-0.604 0.229-0.82 0.882-1.448 1.221-0.735 0.394-4.665 0.394-5.398 0-0.628-0.338-0.845-0.992-1.447-1.221-1.847-0.704-3.98 0.525-5.381 4.502s-1.036 7.772 0.812 8.474c1.447 0.552 2.087-2.034 4.817-3.555 1.237-0.69 6.627-0.778 7.799 0 2.581 1.721 3.369 4.108 4.817 3.555 1.847-0.702 2.211-4.496 0.81-8.474zM7.143 13.295c-1.658 0-3.001-1.344-3.001-3.001s1.343-3.001 3.001-3.001 3.001 1.344 3.001 3.001-1.344 3.001-3.001 3.001zM16.913 7.668c0.512 0 0.925 0.413 0.925 0.924s-0.414 0.924-0.925 0.924c-0.511 0-0.924-0.413-0.924-0.924s0.413-0.924 0.924-0.924zM15.211 11.219c-0.512 0-0.925-0.413-0.925-0.924s0.414-0.924 0.925-0.924c0.511 0 0.924 0.413 0.924 0.924s-0.413 0.924-0.924 0.924zM16.913 12.92c-0.511 0-0.924-0.415-0.924-0.924 0-0.512 0.414-0.926 0.924-0.926 0.512 0 0.925 0.415 0.925 0.926s-0.413 0.924-0.925 0.924zM18.614 11.219c-0.512 0-0.925-0.413-0.925-0.924s0.414-0.924 0.925-0.924c0.511 0 0.924 0.413 0.924 0.924s-0.414 0.924-0.924 0.924zM7.155 8.043c-1.24-0.008-2.256 0.998-2.263 2.239s0.998 2.256 2.239 2.263c1.24 0.006 2.256-0.998 2.263-2.239s-0.998-2.257-2.239-2.263z"></path>
</symbol>
<symbol id="icon-game-upgrade" viewBox="0 0 24 24">
<title>game-upgrade</title>
<path d="M7.155 9.542c-1.241-0.008-2.257 0.998-2.263 2.239-0.007 1.241 0.998 2.256 2.239 2.263 1.24 0.006 2.256-0.998 2.263-2.239 0.006-1.243-0.998-2.257-2.239-2.263zM9.856 13.058c-0.478 1.023-1.508 1.736-2.713 1.736-1.659 0-3.001-1.344-3.001-3.001s1.342-3.001 3.001-3.001c1.204 0 2.235 0.712 2.713 1.736v-2.692c-0.242-0.043-0.437-0.092-0.549-0.152-0.627-0.338-0.844-0.992-1.447-1.221-1.847-0.704-3.981 0.525-5.382 4.502-1.399 3.978-1.035 7.773 0.812 8.475 1.448 0.551 2.087-2.034 4.817-3.555 0.334-0.186 0.975-0.329 1.748-0.421v-2.405zM21.532 10.964c-1.399-3.978-3.532-5.206-5.379-4.502-0.604 0.229-0.821 0.882-1.448 1.221-0.113 0.060-0.309 0.11-0.549 0.152v7.599c0.784 0.089 1.427 0.236 1.75 0.45 2.581 1.721 3.369 4.107 4.816 3.555 1.848-0.702 2.212-4.498 0.81-8.475zM16.913 9.167c0.512 0 0.924 0.413 0.924 0.924s-0.413 0.924-0.924 0.924-0.924-0.413-0.924-0.924 0.413-0.924 0.924-0.924zM15.211 12.718c-0.512 0-0.924-0.415-0.924-0.924 0-0.512 0.413-0.926 0.924-0.926s0.924 0.415 0.924 0.926c0.001 0.51-0.413 0.924-0.924 0.924zM16.913 14.419c-0.512 0-0.924-0.415-0.924-0.926s0.413-0.924 0.924-0.924 0.924 0.415 0.924 0.924c0 0.512-0.413 0.926-0.924 0.926zM18.614 12.718c-0.512 0-0.926-0.415-0.926-0.924 0-0.512 0.415-0.926 0.926-0.926s0.924 0.415 0.924 0.926c0 0.51-0.415 0.924-0.924 0.924zM15.506 5.751l-3.5-4.903-3.501 4.903h2.102v8.811h2.799v-8.811z"></path>
</symbol>
<symbol id="icon-pie" viewBox="0 0 24 24">
<title>pie</title>
<path d="M11.255 3.142c-4.973 0-9.004 4.032-9.004 9.004s4.032 9.004 9.004 9.004 9.004-4.032 9.004-9.004h-9.004v-9.004zM12.755 1.641v9.004h9.004c0-4.973-4.032-9.004-9.004-9.004z"></path>
</symbol>
<symbol id="icon-bars" viewBox="0 0 24 24">
<title>bars</title>
<path d="M2.626 15.898h3.001v4.502h-3.001v-4.502zM7.878 12.897h3.001v7.504h-3.001v-7.504zM13.131 8.395h3.001v12.006h-3.001v-12.006zM18.383 2.392h3.001v18.009h-3.001v-18.009z"></path>
</symbol>
<symbol id="icon-dashboard" viewBox="0 0 24 24">
<title>dashboard</title>
<path d="M5.253 11.396c0-3.724 3.029-6.753 6.753-6.753s6.753 3.029 6.753 6.753c0 0.651-0.098 1.278-0.27 1.874h2.324c0.127-0.606 0.197-1.231 0.197-1.874 0-4.973-4.031-9.004-9.004-9.004s-9.004 4.032-9.004 9.004c0 0.643 0.071 1.269 0.198 1.874h2.323c-0.173-0.597-0.27-1.224-0.27-1.874zM18.489 13.271h-3.489c-0.041 1.619-1.364 2.926-2.994 2.926s-2.953-1.307-2.994-2.926h-5.812c0.863 4.073 4.476 7.13 8.806 7.13s7.943-3.057 8.806-7.13h-2.323zM13.507 13.196c0 0.829-0.672 1.501-1.501 1.501s-1.501-0.672-1.501-1.501c0-0.829 0.672-1.501 1.501-1.501s1.501 0.672 1.501 1.501zM16.175 7.869l0.564 0.494-4.324 4.941-0.564-0.494 4.324-4.941zM11.631 5.398h0.75v3.001h-0.75v-3.001zM6.004 11.021h2.251v0.75h-2.251v-0.75zM15.802 11.021h2.251v0.75h-2.251v-0.75z"></path>
</symbol>
<symbol id="icon-tag" viewBox="0 0 24 24">
<title>tag</title>
<path d="M22.786 4.614l-4.005-4.005-5.95 1.478-11.607 11.607 8.49 8.489 11.607-11.607 1.465-5.963zM9.715 20.061l-6.367-6.367 10.182-10.182 4.724-1.308 2.937 2.937-1.312 4.756-10.164 10.164zM19.212 6.073c0 1.036-0.84 1.876-1.876 1.876s-1.876-0.84-1.876-1.876c0-1.036 0.84-1.876 1.876-1.876s1.876 0.84 1.876 1.876zM15.928 11.726l-6.213 6.213-4.244-4.244 6.213-6.213 4.244 4.244z"></path>
</symbol>
<symbol id="icon-braces" viewBox="0 0 24 24">
<title>braces</title>
<path d="M3.687 10.297c0.563 0 1.005-0.109 1.327-0.327s0.482-0.526 0.482-0.923v-1.867c0-0.681 0.12-1.191 0.359-1.529s0.631-0.585 1.173-0.738c0.542-0.155 1.291-0.232 2.246-0.232v2.050c-0.437 0.015-0.732 0.048-0.886 0.1s-0.278 0.131-0.371 0.239c-0.092 0.108-0.14 0.255-0.14 0.441v1.991c0 0.554-0.139 0.979-0.416 1.276s-0.726 0.488-1.349 0.577v0.089c0.627 0.098 1.079 0.292 1.353 0.58s0.412 0.699 0.412 1.228v2.029c0 0.191 0.051 0.341 0.154 0.449s0.24 0.188 0.412 0.239 0.449 0.085 0.831 0.1v2.043c-0.966 0-1.718-0.078-2.257-0.235s-0.927-0.406-1.165-0.746c-0.237-0.341-0.356-0.857-0.356-1.547v-1.823c0-0.392-0.164-0.699-0.492-0.919-0.329-0.221-0.768-0.331-1.316-0.331v-2.213zM20.325 12.51c-0.544 0-0.98 0.11-1.308 0.331-0.329 0.22-0.492 0.526-0.492 0.919v1.823c0 0.686-0.12 1.201-0.36 1.544s-0.63 0.594-1.169 0.75-1.289 0.235-2.25 0.235v-2.043c0.529-0.019 0.894-0.092 1.096-0.217s0.301-0.315 0.301-0.57v-2.029c0-0.529 0.138-0.939 0.412-1.228s0.726-0.483 1.353-0.58v-0.089c-0.623-0.089-1.072-0.281-1.349-0.577s-0.416-0.723-0.416-1.276v-1.991c0-0.191-0.047-0.339-0.143-0.445s-0.218-0.184-0.367-0.235-0.445-0.085-0.886-0.1v-2.051c0.96 0 1.71 0.077 2.25 0.232s0.929 0.4 1.169 0.738c0.24 0.338 0.36 0.848 0.36 1.529v1.867c0 0.397 0.159 0.705 0.478 0.923s0.76 0.327 1.323 0.327v2.213z"></path>
</symbol>
<symbol id="icon-prompt" viewBox="0 0 24 24">
<title>prompt</title>
<path d="M19.499 20.399h-7.504v-2.251h7.504v2.251zM4.514 15.056l1.501 1.592 5.23-5.231-0.020-0.020 0.020-0.020-5.23-5.231-1.501 1.592 3.568 3.66z"></path>
</symbol>
<symbol id="icon-mail" viewBox="0 0 24 24">
<title>mail</title>
<path d="M12.006 10.177l9.004-4.696v-1.183h-18.009v1.184zM12.006 12.72l-9.004-4.694v10.468h18.009v-10.468z"></path>
</symbol>
<symbol id="icon-file" viewBox="0 0 24 24">
<title>file</title>
<path d="M6.753 6.144h10.505v1.501h-10.505v-1.501zM6.753 9.145h10.505v1.501h-10.505v-1.501zM6.753 12.147h10.505v1.501h-10.505v-1.501zM6.753 15.148h5.769v1.501h-5.769v-1.501zM4.502 2.392v18.009h10.505l4.502-4.502v-13.507h-15.007zM15.007 15.898v3.752h-9.755v-15.758h13.507v12.006h-3.752z"></path>
</symbol>
<symbol id="icon-activity" viewBox="0 0 24 24">
<title>activity</title>
<path d="M3.752 2.392h16.508v1.501h-16.508v-1.501zM3.752 20.401h16.508v1.501h-16.508v-1.501zM18.009 6.52v-1.126h-12.006v1.126c0 2.486 2.743 2.743 4.502 4.502 0.397 0.397 0.397 1.853 0 2.25-1.759 1.758-4.502 2.016-4.502 4.502v1.126h12.006v-1.126c0-2.486-2.745-2.744-4.502-4.502-0.398-0.398-0.398-1.853 0-2.25 1.757-1.759 4.502-2.016 4.502-4.502zM12.446 9.961c-0.18 0.179-0.327 0.406-0.44 0.663-0.114-0.257-0.261-0.485-0.44-0.663-0.755-0.755-1.608-1.254-2.361-1.694-1.076-0.629-1.514-0.941-1.65-1.372h8.902c-0.137 0.431-0.576 0.744-1.652 1.372-0.752 0.44-1.605 0.939-2.36 1.694z"></path>
</symbol>
<symbol id="icon-round-hourglass" viewBox="0 0 24 24">
<title>round-hourglass</title>
<path d="M12.006 2.392c-4.973 0-9.004 4.031-9.004 9.004s4.032 9.004 9.004 9.004c4.974 0 9.004-4.031 9.004-9.004s-4.030-9.004-9.004-9.004zM12.006 18.149c-3.73 0-6.753-3.023-6.753-6.753s3.023-6.753 6.753-6.753 6.753 3.023 6.753 6.753-3.023 6.753-6.753 6.753zM15.939 7.708v-0.737h-7.867v0.737c0 1.63 1.799 1.798 2.95 2.95 0.261 0.261 0.261 1.213 0 1.474-1.15 1.152-2.95 1.322-2.95 2.95v0.738h7.867v-0.738c0-1.628-1.798-1.798-2.95-2.95-0.261-0.261-0.261-1.213 0-1.474 1.153-1.153 2.95-1.321 2.95-2.95zM12.295 9.964c-0.117 0.117-0.214 0.266-0.289 0.435-0.074-0.169-0.17-0.318-0.287-0.435-0.495-0.494-1.054-0.822-1.546-1.11-0.705-0.413-0.993-0.617-1.083-0.9h5.834c-0.089 0.283-0.378 0.486-1.083 0.9-0.492 0.287-1.051 0.616-1.546 1.11z"></path>
</symbol>
<symbol id="icon-round-dollar" viewBox="0 0 24 24">
<title>round-dollar</title>
<path d="M12.576 5.299v1.067c0.284 0.047 0.54 0.12 0.766 0.217 0.227 0.1 0.452 0.24 0.672 0.425s0.392 0.453 0.519 0.806c0.125 0.355 0.188 0.849 0.188 1.485h-2.355v-0.753c0-0.353-0.056-0.564-0.166-0.63-0.11-0.068-0.211-0.101-0.306-0.101-0.054 0-0.117 0.019-0.188 0.054-0.072 0.035-0.125 0.104-0.16 0.205-0.035 0.103-0.057 0.183-0.065 0.242-0.009 0.059-0.012 0.148-0.012 0.266 0 0.36 0.083 0.636 0.254 0.825 0.169 0.188 0.492 0.423 0.972 0.706l0.353 0.201c0.715 0.407 1.213 0.841 1.496 1.301 0.283 0.458 0.423 0.984 0.423 1.573 0 0.235-0.037 0.603-0.111 1.101-0.074 0.5-0.303 0.915-0.686 1.249s-0.915 0.56-1.595 0.678v1.278h-1.209v-1.291c-0.34-0.071-0.626-0.157-0.859-0.258-0.235-0.103-0.484-0.275-0.747-0.519-0.266-0.243-0.457-0.557-0.576-0.942-0.095-0.369-0.142-0.793-0.142-1.272v-0.495h2.392v0.707l0.035 0.766c0.023 0.203 0.080 0.34 0.17 0.406 0.091 0.068 0.183 0.1 0.277 0.1 0.072 0 0.141-0.017 0.206-0.051 0.068-0.037 0.125-0.109 0.172-0.218s0.071-0.278 0.071-0.507c0-0.597-0.056-0.978-0.166-1.143-0.094-0.164-0.455-0.452-1.083-0.859l-0.26-0.154c-0.667-0.384-1.139-0.769-1.413-1.153-0.268-0.418-0.401-0.876-0.401-1.379 0-0.227 0.047-0.585 0.142-1.073 0.094-0.486 0.308-0.858 0.642-1.112 0.332-0.255 0.869-0.481 1.608-0.677v-1.067h1.142zM12.006 2.392c-4.974 0-9.004 4.032-9.004 9.004s4.030 9.004 9.004 9.004c4.973 0 9.004-4.032 9.004-9.004s-4.032-9.004-9.004-9.004zM12.006 18.149c-3.724 0-6.753-3.029-6.753-6.753s3.029-6.753 6.753-6.753 6.753 3.029 6.753 6.753-3.029 6.753-6.753 6.753z"></path>
</symbol>
<symbol id="icon-clock" viewBox="0 0 24 24">
<title>clock</title>
<path d="M11.397 12.767c0.756 0.337 1.644-0.003 1.982-0.761 0.079-0.18 0.119-0.366 0.126-0.551l5.668-3.226-0.741-1.304-5.629 3.204c-0.059-0.037-0.117-0.077-0.182-0.104-0.383-0.172-0.798-0.167-1.159-0.025l-2.909-2.277-0.924 1.181 2.903 2.273c-0.097 0.649 0.238 1.31 0.867 1.59zM20.706 9.083l-2.045 1.164c0.221 1.275 0.080 2.629-0.486 3.9-1.518 3.407-5.511 4.936-8.918 3.419-3.406-1.52-4.936-5.514-3.418-8.921 1.518-3.406 5.512-4.936 8.918-3.418 0.636 0.284 1.207 0.655 1.704 1.090l2.037-1.158c-0.783-0.816-1.73-1.499-2.824-1.988-4.543-2.023-9.866 0.017-11.891 4.558-2.025 4.543 0.015 9.867 4.558 11.89 4.542 2.025 9.864-0.015 11.89-4.555 0.873-1.958 0.986-4.059 0.475-5.981z"></path>
</symbol>
<symbol id="icon-wrench" viewBox="0 0 24 24">
<title>wrench</title>
<path d="M19.826 8.969c1.579-1.58 1.579-4.142 0-5.72-0.203-0.203-0.422-0.377-0.655-0.529v2.683l-2.205 1.593-2.206-1.593v-2.683c-0.232 0.151-0.452 0.326-0.654 0.528-1.11 1.108-0.629 2.668-0.975 4.093-0.712 2.938-7.756 8.251-9.309 9.395-0.088 0.051-0.167 0.111-0.245 0.179-0.038 0.028-0.063 0.046-0.063 0.046l0.003 0.003c-0.009 0.009-0.020 0.015-0.031 0.025-0.675 0.675-0.642 1.805 0.077 2.522 0.718 0.718 1.848 0.752 2.525 0.077 0.009-0.009 0.015-0.020 0.023-0.031l0.003 0.003c0 0 0.019-0.025 0.046-0.062 0.068-0.079 0.129-0.158 0.179-0.245 1.143-1.553 6.456-8.598 9.393-9.311 1.425-0.345 2.984 0.134 4.094-0.974zM5.568 19.066c-0.389 0.389-1.054 0.355-1.485-0.077-0.429-0.428-0.464-1.095-0.077-1.483 0.389-0.387 1.055-0.353 1.485 0.077s0.465 1.096 0.077 1.483z"></path>
</symbol>
<symbol id="icon-hammer" viewBox="0 0 24 24">
<title>hammer</title>
<path d="M6.699 19.17c0.079-0.091 0.149-0.185 0.208-0.284 0.929-1.262 4.204-5.612 7.27-8.44l-1.778-1.778c-2.829 3.067-7.177 6.344-8.439 7.272-0.101 0.059-0.195 0.131-0.286 0.208-0.044 0.032-0.074 0.053-0.074 0.053l0.003 0.005c-0.010 0.010-0.025 0.017-0.035 0.028-0.792 0.792-0.752 2.115 0.089 2.955 0.84 0.84 2.163 0.879 2.955 0.089 0.010-0.012 0.017-0.026 0.028-0.037l0.003 0.003c0 0.001 0.022-0.029 0.055-0.073zM18.271 7.722c-0.397-0.395-0.293-0.801-0.066-1.282l-2.262-2.26c-1.451-0.636-4.601-1.771-6.536-0.938l0.011 0.010c1.964 0.104 4.724 2.231 4.724 3.349 0 0.344-0.281 0.544-0.543 0.832l1.807 1.805c0.479-0.227 0.885-0.331 1.282 0.066 0.398 0.397 0.476 0.986 0.249 1.467l1.273 1.273 2.8-2.8-1.273-1.272c-0.479 0.227-1.069 0.146-1.465-0.251z"></path>
</symbol>
<symbol id="icon-tools" viewBox="0 0 24 24">
<title>tools</title>
<path d="M9.479 13.431c-1.361 1.12-2.551 2.011-3.092 2.408-0.088 0.053-0.17 0.114-0.249 0.183-0.038 0.028-0.065 0.046-0.065 0.046l0.003 0.003c-0.009 0.010-0.020 0.016-0.031 0.025-0.69 0.69-0.655 1.844 0.078 2.577 0.733 0.732 1.886 0.766 2.575 0.078 0.011-0.011 0.016-0.022 0.025-0.032l0.005 0.005c0 0 0.017-0.026 0.046-0.065 0.069-0.079 0.131-0.161 0.182-0.249 0.394-0.537 1.276-1.712 2.385-3.062-0.668-0.744-1.295-1.389-1.861-1.916zM14.73 11.834c-0.466-0.444-0.97-0.963-1.499-1.546 0.16-0.163 1.681-1.738 1.681-1.738 0.226-0.252 0.472-0.425 0.472-0.726 0-0.975-2.406-2.829-4.118-2.92l-0.009-0.009c1.688-0.727 4.433 0.264 5.698 0.818l1.97 1.97c-0.198 0.419-0.287 0.772 0.059 1.118s0.859 0.416 1.276 0.217l1.111 1.11-2.44 2.442-1.11-1.111c0.198-0.418 0.129-0.932-0.217-1.278-0.347-0.346-0.701-0.255-1.118-0.057l-1.755 1.71zM9.129 4.713c-1.364-1.364-3.576-1.364-4.94 0-0.174 0.176-0.326 0.365-0.455 0.566h2.319l1.375 1.905-1.375 1.905h-2.319c0.131 0.2 0.281 0.389 0.455 0.564 0.958 0.957 2.305 0.543 3.536 0.841 2.538 0.615 7.125 6.699 8.112 8.042 0.044 0.075 0.097 0.143 0.155 0.211 0.023 0.032 0.040 0.054 0.040 0.054l0.002-0.002c0.009 0.008 0.014 0.017 0.022 0.025 0.583 0.583 1.559 0.554 2.179-0.066 0.62-0.618 0.651-1.595 0.066-2.179-0.009-0.008-0.017-0.014-0.026-0.020l0.003-0.003c0 0-0.022-0.016-0.054-0.040-0.068-0.057-0.137-0.11-0.211-0.154-1.344-0.987-7.426-5.577-8.042-8.114-0.298-1.231 0.116-2.578-0.842-3.536zM17.852 17.029c0.334 0.334 0.305 0.91-0.066 1.281-0.372 0.372-0.947 0.401-1.282 0.066s-0.306-0.91 0.066-1.282c0.371-0.371 0.947-0.4 1.282-0.065z"></path>
</symbol>
<symbol id="icon-face-happy" viewBox="0 0 24 24">
<title>face-happy</title>
<path d="M12.006 2.392c-4.973 0-9.004 4.031-9.004 9.004 0 4.974 4.032 9.004 9.004 9.004s9.004-4.030 9.004-9.004c0-4.973-4.032-9.004-9.004-9.004zM8.254 7.644c0.828 0 1.501 0.672 1.501 1.501s-0.672 1.501-1.501 1.501c-0.829 0-1.501-0.672-1.501-1.501s0.672-1.501 1.501-1.501zM12.006 17.69c-2.077 0-3.936-1.164-5.208-3.001h10.416c-1.273 1.838-3.131 3.001-5.208 3.001zM15.758 10.645c-0.829 0-1.501-0.672-1.501-1.501s0.672-1.501 1.501-1.501c0.828 0 1.501 0.672 1.501 1.501s-0.672 1.501-1.501 1.501z"></path>
</symbol>
<symbol id="icon-face-sad" viewBox="0 0 24 24">
<title>face-sad</title>
<path d="M12.006 2.392c-4.973 0-9.004 4.031-9.004 9.004 0 4.974 4.032 9.004 9.004 9.004s9.004-4.030 9.004-9.004c0-4.973-4.032-9.004-9.004-9.004zM5.554 10.782l1.639-1.637-1.639-1.639 1.063-1.060 1.637 1.637 1.636-1.637 1.063 1.061-1.637 1.637 1.637 1.637-1.061 1.061-1.639-1.637-1.636 1.637-1.063-1.061zM16.468 16.633h-9.004v-1.501h9.004v1.501zM17.395 11.843l-1.639-1.637-1.636 1.637-1.063-1.061 1.639-1.637-1.639-1.639 1.063-1.060 1.637 1.637 1.636-1.637 1.063 1.061-1.637 1.637 1.637 1.637-1.061 1.061z"></path>
</symbol>
<symbol id="icon-face-dead" viewBox="0 0 24 24">
<title>face-dead</title>
<path d="M12.006 2.392c-4.973 0-9.004 4.031-9.004 9.004 0 4.974 4.032 9.004 9.004 9.004s9.004-4.030 9.004-9.004c0-4.973-4.032-9.004-9.004-9.004zM8.254 7.644c0.829 0 1.501 0.672 1.501 1.501s-0.672 1.501-1.501 1.501c-0.828 0-1.501-0.672-1.501-1.501s0.672-1.501 1.501-1.501zM6.799 16.191c1.272-1.836 3.131-3.001 5.207-3.001s3.936 1.165 5.208 3.001h-10.415zM17.395 11.843l-1.637-1.637-1.637 1.637-1.061-1.061 1.637-1.637-1.637-1.639 1.061-1.060 1.637 1.637 1.637-1.637 1.063 1.061-1.639 1.637 1.639 1.637-1.063 1.061z"></path>
</symbol>
<symbol id="icon-book" viewBox="0 0 24 24">
<title>book</title>
<path d="M11.255 19.152c0 0-1.764-0.97-5.13-1.573-1.74-0.311-4.886-0.38-4.886-0.38v-14.412c0 0 3.146 0.069 4.886 0.38 3.366 0.6 5.13 1.571 5.13 1.571v14.414zM5.954 18.542c-1.055-0.188-2.691-0.284-3.737-0.329v1.797c0 0 2.839-0.699 4.409-0.84 0.621-0.056 1.18-0.079 1.679-0.085-0.66-0.19-1.442-0.38-2.351-0.543zM12.756 19.152c0 0 1.764-0.97 5.13-1.573 1.74-0.311 4.886-0.38 4.886-0.38v-14.412c0 0-3.146 0.069-4.886 0.38-3.366 0.6-5.13 1.571-5.13 1.571v14.414zM18.058 18.542c1.055-0.188 2.691-0.284 3.737-0.329v1.797c0 0-2.839-0.699-4.409-0.84-0.621-0.056-1.18-0.079-1.679-0.085 0.66-0.19 1.442-0.38 2.351-0.543z"></path>
</symbol>
<symbol id="icon-bookmark" viewBox="0 0 24 24">
<title>bookmark</title>
<path d="M12.006 14.684l3.752 5.719v-18.010h-7.504v18.010z"></path>
</symbol>
<symbol id="icon-camera" viewBox="0 0 24 24">
<title>camera</title>
<path d="M21.010 5.884h-3.752v-0.983c0-0.828-0.672-1.501-1.501-1.501h-7.504c-0.828 0-1.501 0.672-1.501 1.501v0.984h-3.752c-0.828 0-1.501 0.672-1.501 1.501v10.505c0 0.829 0.672 1.501 1.501 1.501h18.009c0.829 0 1.501-0.672 1.501-1.501v-10.505c0-0.828-0.672-1.501-1.501-1.501zM12.007 17.218c-2.514 0-4.552-2.037-4.552-4.55s2.039-4.55 4.552-4.55 4.55 2.037 4.55 4.55-2.036 4.55-4.55 4.55zM15.095 12.667c0 1.705-1.382 3.088-3.088 3.088s-3.088-1.382-3.088-3.088c0-1.705 1.382-3.088 3.088-3.088s3.088 1.382 3.088 3.088z"></path>
</symbol>
<symbol id="icon-sum" viewBox="0 0 24 24">
<title>sum</title>
<path d="M17.545 4.644h-11.080v3.092l3.569 3.66-3.569 3.661v3.092h11.080v-2.184h-8.896l4.548-4.549-0.020-0.020 0.020-0.020-4.48-4.48h8.829z"></path>
</symbol>
<symbol id="icon-blackboard" viewBox="0 0 24 24">
<title>blackboard</title>
<path d="M3.323 3.359v13.505h17.366v-13.507l-17.366 0.002zM19.188 15.363h-14.364v-10.504l14.364-0.002v10.505zM10.505 0.356h3.001v1.501h-3.001v-1.501zM16.646 18.365h-1.733l2.36 3.138h1.732zM9.502 18.365h-1.735l-2.37 3.138h1.735zM11.443 18.365h1.501v4.071h-1.501v-4.071z"></path>
</symbol>
<symbol id="icon-bag" viewBox="0 0 24 24">
<title>bag</title>
<path d="M18.214 5.347h-2.523c-0.044-2.357-1.674-4.252-3.684-4.252-2.012 0-3.642 1.895-3.686 4.252h-2.523l-0.753 15.051h13.923l-0.753-15.051zM12.007 2.597c1.161 0 2.139 1.25 2.18 2.749h-4.362c0.041-1.499 1.020-2.749 2.182-2.749zM9.371 8.438c-0.453 0-0.821-0.368-0.821-0.821s0.368-0.821 0.821-0.821 0.821 0.366 0.821 0.821c0 0.452-0.368 0.821-0.821 0.821zM14.641 8.438c-0.453 0-0.821-0.368-0.821-0.821s0.368-0.821 0.821-0.821 0.821 0.366 0.821 0.821c-0.001 0.452-0.368 0.821-0.821 0.821z"></path>
</symbol>
<symbol id="icon-marker" viewBox="0 0 24 24">
<title>marker</title>
<path d="M12.006 1.641c-4.342 0-5.525 3.281-5.525 6.341 0 5.178 4.348 9.392 5.525 13.17 1.147-3.831 5.525-7.939 5.525-13.17 0-2.986-1.182-6.341-5.525-6.341zM12.006 10.48c-1.552 0-2.814-1.259-2.814-2.812 0-1.555 1.262-2.815 2.814-2.815s2.814 1.261 2.814 2.815c0 1.554-1.263 2.812-2.814 2.812z"></path>
</symbol>
<symbol id="icon-pin-small" viewBox="0 0 24 24">
<title>pin-small</title>
<path d="M19.866 17.88c1.259-1.261-0.597-5.151-4.143-8.698-3.544-3.545-7.442-5.4-8.7-4.144-1.129 1.129 0.259 4.372 3.101 7.582l-6.373 8.532 8.532-6.375c3.215 2.848 6.455 4.231 7.582 3.103z"></path>
</symbol>
<symbol id="icon-pin-big" viewBox="0 0 24 24">
<title>pin-big</title>
<path d="M14.019 15.477l3.263-3.172c1.541 0.948 2.868 1.262 3.44 0.689 0.919-0.919-0.433-3.755-3.017-6.34-2.584-2.581-5.422-3.935-6.341-3.017-0.58 0.58-0.245 1.934 0.733 3.506l-3.26 3.17c-1.546-0.953-2.878-1.27-3.452-0.696-0.822 0.822 0.186 3.185 2.259 5.522l-4.643 6.22 6.217-4.646c2.342 2.077 4.703 3.083 5.525 2.262 0.581-0.581 0.248-1.931-0.724-3.497z"></path>
</symbol>
<symbol id="icon-unpin" viewBox="0 0 24 24">
<title>unpin</title>
<path d="M16.835 12.198c1.429 0.827 2.644 1.083 3.184 0.543 0.919-0.919-0.433-3.755-3.017-6.34-2.584-2.581-5.422-3.935-6.341-3.017-0.541 0.541-0.279 1.757 0.55 3.192l5.624 5.622zM8.135 10.058c-1.546-0.953-2.878-1.27-3.452-0.696-0.822 0.822 0.186 3.185 2.259 5.523l-4.643 6.218 6.217-4.644c2.342 2.076 4.703 3.082 5.525 2.26 0.58-0.58 0.248-1.928-0.725-3.495l-5.181-5.166zM3.142 2.749l1.061-1.061 17.509 17.509-1.061 1.061-17.509-17.509z"></path>
</symbol>
<symbol id="icon-shine" viewBox="0 0 24 24">
<title>shine</title>
<path d="M11.255 1.595h1.501v6.004h-1.501v-6.004zM18.406 3.936l1.061 1.061-4.244 4.244-1.061-1.061 4.244-4.244zM15.805 10.647h6.003v1.501h-6.003v-1.501zM19.466 17.799l-1.061 1.059-4.241-4.247 1.061-1.059 4.241 4.247zM11.255 15.196h1.501v6.004h-1.501v-6.004zM5.605 18.861l-1.061-1.059 4.243-4.249 1.061 1.059-4.243 4.249zM2.203 10.647h6.003v1.501h-6.003v-1.501zM4.542 4.998l1.059-1.061 4.248 4.242-1.059 1.061-4.248-4.242z"></path>
</symbol>
</defs>
</svg>
